<?xml version="1.0" standalone="no"?>
<!DOCTYPE svg PUBLIC "-//W3C//DTD SVG 1.1//EN" "http://www.w3.org/Graphics/SVG/1.1/DTD/svg11.dtd" >
<svg>
<metadata>
Created by FontForge 20110222 at Fri Sep  5 06:04:01 2014
 By Orthosie Webhosting
Copyright (c) 1985, 1987, 1994, 1999 Adobe Systems Incorporated. All Rights Reserved.Helvetica is a trademark of Linotype-Hell AG and/or its subsidiaries.
</metadata>
<defs>
<font id="HelveticaLTBlackRegular" horiz-adv-x="667" >
  <font-face 
    font-family="HelveticaLTBlackRegular"
    font-weight="900"
    font-stretch="normal"
    units-per-em="1000"
    panose-1="2 0 10 3 5 0 0 2 0 4"
    ascent="800"
    descent="-200"
    x-height="524"
    cap-height="720"
    bbox="-167 -250 1007 1013"
    underline-thickness="50"
    underline-position="-75"
    unicode-range="U+0020-FB02"
  />
<missing-glyph horiz-adv-x="333" 
 />
    <glyph glyph-name=".notdef" horiz-adv-x="333" 
 />
    <glyph glyph-name=".null" horiz-adv-x="0" 
 />
    <glyph glyph-name="nonmarkingreturn" horiz-adv-x="333" 
 />
    <glyph glyph-name="space" unicode=" " horiz-adv-x="333" 
 />
    <glyph glyph-name="space" unicode="&#xa0;" horiz-adv-x="333" 
 />
    <glyph glyph-name="exclam" unicode="!" horiz-adv-x="333" 
d="M61 0v194h206v-194h-206zM60 542v178h213v-178l-52 -278h-113z" />
    <glyph glyph-name="quotedbl" unicode="&#x22;" horiz-adv-x="500" 
d="M99 449v271h119v-271h-119zM282 449v271h119v-271h-119z" />
    <glyph glyph-name="numbersign" unicode="#" horiz-adv-x="660" 
d="M298 403l-12 -88h85l13 88h-86zM550 222h-102l-32 -222h-89l31 222h-85l-32 -222h-88l31 222h-100v93h114l13 88h-99v93h111l30 209h87l-29 -209h86l29 209h90l-30 -209h90v-93h-103l-12 -88h89v-93z" />
    <glyph glyph-name="dollar" unicode="$" 
d="M286 585q-11 1 -24 -3t-24 -12.5t-19 -20t-8 -25.5q0 -18 7 -29t18.5 -18.5t24.5 -12t25 -9.5v130zM369 114q15 0 30.5 4.5t28 13t20.5 20.5t8 28q0 33 -25 52.5t-62 27.5v-146zM286 777h83v-62q49 -3 95.5 -15t82.5 -37.5t58 -65t21 -97.5h-173q-1 15 -7 29.5t-17 25.5
t-26 17.5t-34 6.5v-139q47 -14 94.5 -31t86 -42.5t62.5 -63.5t24 -94q0 -62 -21.5 -103.5t-58 -68t-85 -38.5t-102.5 -14v-97h-83v97q-54 2 -101.5 17.5t-83 45.5t-56.5 73.5t-22 102.5h181q0 -42 21 -69t61 -35v157q-44 13 -88.5 28t-80 38t-58 59t-22.5 93q0 58 21 97
t55.5 64t79.5 38.5t93 20.5v62z" />
    <glyph glyph-name="percent" unicode="%" horiz-adv-x="1000" 
d="M688 196q0 -17 7 -32.5t19 -27t27.5 -18t32.5 -6.5q34 0 59 25t25 59t-24.5 59.5t-59.5 25.5q-17 0 -32.5 -6.5t-27.5 -18t-19 -27t-7 -33.5zM227 606q-17 0 -32.5 -6.5t-27.5 -18t-19 -27t-7 -32.5q0 -35 25.5 -60t60.5 -25q17 0 32.5 7t27 18.5t18.5 27t7 32.5
q0 35 -25.5 59.5t-59.5 24.5zM337 -31h-101l424 778h101zM553 195q0 45 17.5 85t48 70.5t70.5 48t85 17.5t85 -17.5t70 -48t47 -70.5t17 -85t-17 -85t-47 -69.5t-70 -46.5t-85 -17t-85 17t-70 46.5t-48 69.5t-18 85zM227 302q-45 0 -85.5 17.5t-70.5 47.5t-47.5 70t-17.5 85
t17.5 85t48 69.5t70.5 47t85 17.5t85 -17t70 -47t47.5 -70t17.5 -85t-17.5 -85t-47.5 -70t-70 -47.5t-85 -17.5z" />
    <glyph glyph-name="ampersand" unicode="&#x26;" horiz-adv-x="889" 
d="M384 595q-26 0 -48 -12t-22 -42q0 -27 17.5 -47t43.5 -37q18 8 33.5 17.5t26 21.5t14.5 28.5t-3 38.5q-8 17 -26.5 24.5t-35.5 7.5zM323 286q-15 -8 -29 -16.5t-25 -19t-17.5 -23t-6.5 -27.5q0 -32 19.5 -49t50.5 -17q17 0 41 8.5t39 17.5q11 6 17.5 9.5t9 5.5t1 5
t-6.5 8zM537 61q-18 -15 -44 -29.5t-57.5 -26t-66.5 -18t-70 -6.5q-50 0 -95.5 11.5t-81 36t-56.5 62.5t-21 90q0 80 41 134.5t110 89.5q-28 29 -45 61t-17 74q0 51 22 85.5t57.5 55.5t79 30t86.5 9q50 0 93.5 -13.5t76 -38t51.5 -60t19 -78.5q0 -65 -31 -108.5t-86 -73.5
l62 -64q28 24 47 60h190q-25 -48 -54.5 -92t-66.5 -83l164 -169h-250z" />
    <glyph glyph-name="quotesingle" unicode="'" horiz-adv-x="278" 
d="M79 449v271h119v-271h-119z" />
    <glyph glyph-name="parenleft" unicode="(" horiz-adv-x="389" 
d="M155 -178q-20 38 -39.5 85.5t-34.5 104t-24.5 123t-9.5 142.5q0 69 10.5 130t26 116t35 104t37.5 93h178q-41 -107 -67.5 -219t-26.5 -227q0 -118 24.5 -230.5t66.5 -221.5h-176z" />
    <glyph glyph-name="parenright" unicode=")" horiz-adv-x="389" 
d="M234 720q20 -38 39.5 -85.5t34.5 -104t24.5 -123t9.5 -142.5q0 -69 -10.5 -130t-26 -116t-35 -104t-37.5 -93h-178q41 107 67.5 219t26.5 227q0 118 -24.5 230.5t-66.5 221.5h176z" />
    <glyph glyph-name="asterisk" unicode="*" horiz-adv-x="556" 
d="M224 581v139h108v-139l132 51l38 -103l-139 -47l95 -117l-91 -70l-87 124l-87 -124l-92 68l91 117l-138 37l37 110z" />
    <glyph glyph-name="plus" unicode="+" horiz-adv-x="660" 
d="M272 505h116v-191h194v-116h-194v-198h-116v198h-194v116h194v191z" />
    <glyph glyph-name="comma" unicode="," horiz-adv-x="333" 
d="M58 -89q45 6 70 29q24 22 27 60h-97v206h212v-174q0 -101 -57 -152t-155 -56v87z" />
    <glyph glyph-name="hyphen" unicode="-" horiz-adv-x="333" 
d="M32 165v182h268v-182h-268z" />
    <glyph glyph-name="hyphen" unicode="&#xad;" horiz-adv-x="333" 
d="M32 165v182h268v-182h-268z" />
    <glyph glyph-name="period" unicode="." horiz-adv-x="333" 
d="M60 0v206h212v-206h-212z" />
    <glyph glyph-name="slash" unicode="/" horiz-adv-x="278" 
d="M310 720l-216 -810h-126l216 810h126z" />
    <glyph glyph-name="zero" unicode="0" 
d="M334 141q28 0 46.5 16t29.5 44t16 66t5 82q0 28 -1 64t-10 68.5t-29 55t-59 22.5q-35 0 -54.5 -23.5t-28.5 -57t-11 -70t-2 -61.5q0 -46 4 -84t15 -65t30 -42t49 -15zM28 359q0 97 25.5 165t67.5 110.5t97.5 61.5t115.5 19q69 0 125 -22.5t96 -67t62 -111t22 -154.5
q0 -75 -15.5 -143t-51.5 -119.5t-94.5 -82t-143.5 -30.5q-86 0 -144.5 30t-94.5 81t-51.5 119t-15.5 144z" />
    <glyph glyph-name="one" unicode="1" 
d="M469 0h-208v411h-163v142q41 1 76.5 9t63 27t46 49.5t27.5 76.5h158v-715z" />
    <glyph glyph-name="two" unicode="2" 
d="M56 0q-3 62 19.5 109t64.5 91q30 31 63.5 56t67.5 47.5t65 43t55 42t38 46t14 53.5q0 17 -7.5 30t-19.5 22t-27 14t-31 5q-30 0 -50 -11.5t-31.5 -30.5t-16 -43.5t-4.5 -49.5h-187q1 78 22 133t60 90t93.5 51.5t123.5 16.5q55 0 106 -12.5t90.5 -40t63 -71t23.5 -104.5
q0 -47 -16.5 -81t-42.5 -60.5t-60 -48t-68 -42.5q-38 -24 -76 -44.5t-66 -40.5h327v-170h-593z" />
    <glyph glyph-name="three" unicode="3" 
d="M231 245q-1 -48 25 -76t75 -28q46 0 69.5 25.5t23.5 56.5q0 30 -13.5 46t-33 23t-42 8t-41.5 1v123q18 -2 40 0t40.5 9.5t31 22.5t12.5 40q0 34 -25.5 48.5t-56.5 14.5q-37 0 -61.5 -18.5t-29.5 -56.5h-188q3 61 27 104.5t63 71.5t89.5 41.5t105.5 13.5q63 0 113 -14
t85 -39.5t54 -62t19 -81.5q0 -48 -19.5 -83t-62.5 -56q48 -19 74.5 -57t26.5 -90q0 -62 -22 -108t-63 -77t-98.5 -46.5t-128.5 -15.5q-62 0 -114.5 16t-90.5 48.5t-59.5 81t-20.5 114.5h196z" />
    <glyph glyph-name="four" unicode="4" 
d="M182 302h168v215zM25 314l329 391h194v-403h88v-155h-88v-147h-198v147h-325v167z" />
    <glyph glyph-name="five" unicode="5" 
d="M124 705h452v-170h-306l-23 -106q33 24 69.5 31t76.5 7q51 0 94.5 -15t76 -43.5t51 -70t18.5 -94.5q0 -73 -26.5 -122.5t-71 -80t-101.5 -43.5t-117 -13q-116 0 -190 50.5t-104 148.5l209 21q0 -2 1 -3.5t1 -3.5q9 -28 35 -42.5t55 -14.5q46 0 73.5 27t27.5 66
q0 44 -21.5 73t-69.5 29q-23 0 -47.5 -8t-36.5 -31l-196 7z" />
    <glyph glyph-name="six" unicode="6" 
d="M344 326q-54 -2 -76 -30.5t-22 -70.5q0 -19 7.5 -35.5t20.5 -29t30 -19.5t36 -7q46 0 69 26.5t23 71.5q0 42 -24.5 68t-63.5 26zM429 517q-8 29 -30.5 42.5t-53.5 13.5q-29 0 -49.5 -12.5t-33.5 -34t-19 -51.5t-6 -64q42 29 78.5 40t86.5 11q61 0 106 -21.5t74.5 -54.5
t43.5 -73.5t14 -78.5q0 -65 -21.5 -111.5t-59.5 -77.5t-89.5 -45.5t-111.5 -14.5q-77 0 -138.5 21.5t-104 66t-65.5 114t-23 165.5q0 81 20.5 148t60 115t96.5 74t131 26q49 0 96 -9t86 -30.5t67 -57t39 -89.5z" />
    <glyph glyph-name="seven" unicode="7" 
d="M56 535v170h567v-158q-48 -39 -89 -95.5t-72 -127t-49.5 -153t-21.5 -171.5h-216q8 88 30 165t54.5 143.5t73 122.5t85.5 104h-362z" />
    <glyph glyph-name="eight" unicode="8" 
d="M332 423q35 0 61.5 18.5t26.5 56.5q0 36 -25 56t-61 20q-38 0 -64.5 -19.5t-25.5 -58.5q0 -39 26.5 -56t61.5 -17zM360 135q35 5 52 27t17 57q0 43 -26 67t-68 24q-44 0 -71 -22.5t-27 -69.5q0 -26 11 -43.5t28.5 -27.5t39.5 -13t44 1zM143 369q-21 11 -37.5 23.5
t-28.5 29t-18.5 39t-6.5 55.5q0 51 24 88.5t63.5 62t92 36.5t109.5 12q60 0 110 -14.5t85.5 -40.5t55.5 -62t20 -78q0 -51 -21.5 -88.5t-71.5 -57.5q57 -22 87.5 -62t30.5 -103q0 -53 -22.5 -95t-62.5 -70.5t-96 -43.5t-122 -15q-62 0 -117.5 13t-97 40.5t-66 70
t-24.5 100.5q0 31 8 55.5t22.5 43.5t35.5 33.5t48 27.5z" />
    <glyph glyph-name="nine" unicode="9" 
d="M321 375q54 2 76 30.5t22 70.5q0 19 -7.5 35.5t-20.5 29t-30 19.5t-36 7q-46 0 -69 -26.5t-23 -71.5q0 -42 24.5 -68t63.5 -26zM236 183q8 -29 30.5 -42.5t53.5 -13.5q29 0 49.5 12.5t33.5 34t19 51t6 64.5q-42 -29 -78.5 -40t-86.5 -11q-62 0 -106.5 21.5t-74 54.5
t-43.5 73.5t-14 78.5q0 64 21.5 111t59.5 78t89.5 45.5t111.5 14.5q77 0 138.5 -21.5t104 -66t65.5 -114t23 -165.5q0 -81 -20.5 -148t-60 -115t-97 -74t-130.5 -26q-50 0 -96.5 9t-85.5 30.5t-67 57t-39 89.5z" />
    <glyph glyph-name="colon" unicode=":" horiz-adv-x="333" 
d="M60 318v206h212v-206h-212zM60 0v206h212v-206h-212z" />
    <glyph glyph-name="semicolon" unicode=";" horiz-adv-x="333" 
d="M58 318v206h212v-206h-212zM270 206v-174q0 -101 -57 -152t-155 -56v87q45 6 70 29q24 22 27 60h-97v206h212z" />
    <glyph glyph-name="less" unicode="&#x3c;" horiz-adv-x="660" 
d="M584 -20l-509 226v99l509 227v-128l-356 -150l356 -146v-128z" />
    <glyph glyph-name="equal" unicode="=" horiz-adv-x="660" 
d="M582 100h-504v116h504v-116zM582 296h-504v116h504v-116z" />
    <glyph glyph-name="greater" unicode="&#x3e;" horiz-adv-x="660" 
d="M430 254l-356 150v128l509 -227v-99l-509 -226v128z" />
    <glyph glyph-name="question" unicode="?" horiz-adv-x="611" 
d="M398 194v-194h-206v194h206zM203 269q-4 58 7 93.5t30 56.5t42 31.5t43 20.5t34 22.5t14 37.5q0 32 -23 45t-51 13q-35 0 -50 -22.5t-15 -60.5h-207q3 60 27 104t63 73q38 29 88 42.5t106 13.5q58 0 107.5 -13t85.5 -38.5t56.5 -63.5t20.5 -89q0 -43 -15.5 -70.5
t-39 -46.5t-50 -32.5t-48 -28.5t-34 -35.5t-7.5 -52.5h-184z" />
    <glyph glyph-name="at" unicode="@" horiz-adv-x="740" 
d="M280 338q0 -35 19.5 -61.5t56.5 -26.5q23 0 42 9.5t32.5 25t20.5 35.5t7 41q0 37 -21.5 61t-58.5 24q-21 0 -39 -9.5t-31 -25t-20.5 -35t-7.5 -38.5zM497 544h95l-49 -292q-2 -14 -3 -25t15 -11t33 13.5t31.5 37.5t23.5 57.5t9 74.5q0 61 -20.5 107.5t-56.5 78t-85 48
t-106 16.5q-63 0 -114.5 -22t-88 -60.5t-56.5 -91.5t-20 -115q0 -66 22 -119.5t61.5 -91t94 -58t118.5 -20.5q57 0 105.5 19t85.5 48h99q-54 -75 -129 -116t-169 -41q-81 0 -151.5 28.5t-123 79t-83 120t-30.5 151.5q0 81 29.5 150t81.5 120t121.5 80t149.5 29
q66 0 125.5 -20.5t109.5 -63.5q51 -43 81.5 -98.5t30.5 -124.5q0 -60 -17.5 -112t-59.5 -94q-15 -15 -36 -30t-44.5 -27t-47.5 -20t-45 -8q-25 0 -42.5 12.5t-15.5 38.5q-20 -21 -46 -34t-52 -13q-33 0 -63.5 14t-53.5 38t-37 56t-14 69q0 44 14.5 85.5t41 73.5t64 51.5
t84.5 19.5q38 0 69 -14t54 -45z" />
    <glyph glyph-name="A" unicode="A" horiz-adv-x="778" 
d="M387 503l-73 -258h149zM11 0l258 720h240l258 -720h-235l-28 95h-235l-27 -95h-231z" />
    <glyph glyph-name="B" unicode="B" horiz-adv-x="778" 
d="M308 552v-120h98q35 0 58 15.5t23 47.5q0 21 -8 32.5t-21.5 17t-30.5 6.5t-36 1h-83zM308 301v-133h103q22 0 40.5 2.5t32 10t21.5 20.5t8 33q0 24 -10 37t-27 20t-41 8.5t-52 1.5h-75zM72 0v720h344q61 0 114 -8t92.5 -28.5t62 -55.5t22.5 -89q0 -28 -8 -52t-21.5 -43.5
t-30.5 -35t-34 -26.5q59 -15 89.5 -60.5t30.5 -104.5q0 -60 -22 -101.5t-62.5 -67t-98 -37t-127.5 -11.5h-351z" />
    <glyph glyph-name="C" unicode="C" horiz-adv-x="778" 
d="M519 445q-5 57 -38.5 87.5t-89.5 30.5q-63 0 -98 -52.5t-35 -157.5q0 -38 5.5 -73.5t20.5 -62.5t43 -43.5t73 -16.5q57 0 85.5 35t35.5 87h227q-8 -70 -36 -125t-72.5 -93.5t-104.5 -59t-131 -20.5q-89 0 -160 26.5t-120.5 76t-75.5 119.5t-26 158q0 87 28 157t76.5 119
t114 75.5t140.5 26.5q165 0 256.5 -77.5t105.5 -216.5h-224z" />
    <glyph glyph-name="D" unicode="D" horiz-adv-x="778" 
d="M301 168h50q82 0 126 46t44 148q0 56 -9.5 93t-30.5 58.5t-54.5 30t-80.5 8.5h-45v-384zM65 0v720h316q87 0 156.5 -20.5t118.5 -63t75 -107.5t26 -154q0 -102 -27 -173t-77 -116t-120.5 -65.5t-157.5 -20.5h-310z" />
    <glyph glyph-name="E" unicode="E" horiz-adv-x="722" 
d="M76 0v720h587v-168h-351v-103h297v-168h-297v-113h365v-168h-601z" />
    <glyph glyph-name="F" unicode="F" 
d="M74 0v720h560v-168h-324v-131h258v-168h-258v-253h-236z" />
    <glyph glyph-name="G" unicode="G" horiz-adv-x="833" 
d="M766 -2h-152l-9 71q-15 -17 -34.5 -33t-46 -28t-60.5 -19.5t-76 -7.5q-69 0 -132 22.5t-111.5 68.5t-77 115.5t-28.5 163.5q0 86 26 157.5t75 122.5t119 79.5t157 28.5q65 0 122 -17t102 -50.5t75.5 -83.5t41.5 -116h-224q-13 45 -44 68t-77 23q-35 0 -60.5 -15
t-42.5 -43t-25.5 -66.5t-8.5 -86.5q0 -38 7 -73.5t24 -62.5t46 -43t74 -16q18 0 37.5 6t36.5 17t29.5 26t17.5 34h-104v156h323v-398z" />
    <glyph glyph-name="H" unicode="H" horiz-adv-x="833" 
d="M69 0v720h236v-243h223v243h236v-720h-236v279h-223v-279h-236z" />
    <glyph glyph-name="I" unicode="I" horiz-adv-x="389" 
d="M76 0v720h236v-720h-236z" />
    <glyph glyph-name="J" unicode="J" 
d="M237 313q0 -28 1 -56t7 -50t18.5 -36t35.5 -14q27 0 43.5 22t16.5 66v475h236v-442q0 -143 -68.5 -220t-212.5 -77q-157 0 -229 84.5t-58 247.5h210z" />
    <glyph glyph-name="K" unicode="K" horiz-adv-x="833" 
d="M75 720h236v-233l207 233h277l-263 -271l291 -449h-283l-173 287l-56 -59v-228h-236v720z" />
    <glyph glyph-name="L" unicode="L" 
d="M76 0v720h236v-552h324v-168h-560z" />
    <glyph glyph-name="M" unicode="M" horiz-adv-x="944" 
d="M60 0v720h285l127 -449l127 449h285v-720h-212v220l3 112l12 130h-2l-131 -462h-164l-131 462h-2l10 -106l5 -112v-244h-212z" />
    <glyph glyph-name="N" unicode="N" horiz-adv-x="833" 
d="M547 327l-9 164v229h226v-720h-221l-257 392l9 -164v-228h-226v720h221z" />
    <glyph glyph-name="O" unicode="O" horiz-adv-x="833" 
d="M414 563q-40 0 -67 -18.5t-43 -47t-22.5 -64t-6.5 -69.5q0 -35 6 -71.5t22 -66.5t43.5 -49.5t69.5 -19.5q38 0 65 15.5t44 43.5t25 65.5t8 82.5q0 37 -8 73t-25 64.5t-44.5 45.5t-66.5 16zM416 739q96 0 167.5 -32t118 -84.5t69.5 -120t23 -138.5q0 -92 -29 -163.5
t-80 -120t-120 -74t-149 -25.5q-85 0 -154.5 25.5t-119 75t-76.5 121t-27 163.5q0 85 27.5 153.5t77 117.5t119 75.5t153.5 26.5z" />
    <glyph glyph-name="P" unicode="P" horiz-adv-x="722" 
d="M391 392q42 0 68.5 18.5t26.5 65.5q0 25 -12.5 40t-31.5 23t-41 10.5t-41 2.5h-67v-160h98zM57 0v720h347q155 0 231 -66t76 -177q0 -58 -17.5 -105t-54.5 -80t-93 -50.5t-134 -17.5h-119v-224h-236z" />
    <glyph glyph-name="Q" unicode="Q" horiz-adv-x="833" 
d="M471 350l77 -78q5 19 7.5 40.5t2.5 51.5q0 93 -38.5 146t-105.5 53q-40 0 -67 -18.5t-43 -47t-22.5 -64t-6.5 -69.5q0 -35 6 -71.5t22 -66.5t43.5 -49.5t69.5 -19.5q17 0 36 7l-81 81zM693 -81l-98 99q-27 -12 -71.5 -24.5t-107.5 -12.5q-86 0 -155.5 26t-119 75.5
t-76 121t-26.5 162.5q0 85 27.5 153.5t77 117.5t119 75.5t153.5 26.5q88 0 158.5 -29t119 -80t74.5 -119.5t26 -146.5q0 -66 -20 -134.5t-64 -122.5l82 -83z" />
    <glyph glyph-name="R" unicode="R" horiz-adv-x="778" 
d="M297 409h93q55 0 83.5 15t28.5 53t-26.5 56.5t-68.5 18.5h-110v-143zM297 251v-251h-236v720h340q90 0 151 -12.5t98.5 -37.5t53.5 -64t16 -91q0 -62 -29 -110.5t-92 -65.5q28 -11 51 -21.5t38.5 -30t24 -52.5t8.5 -87v-59t2 -39t7 -21.5t16 -6.5v-22h-239q-5 12 -8.5 45
t-3.5 81q0 35 -4 59t-17.5 38.5t-38.5 21t-66 6.5h-72z" />
    <glyph glyph-name="S" unicode="S" horiz-adv-x="722" 
d="M445 511q-3 19 -12 30.5t-22 18.5q-25 13 -61 13q-39 0 -57 -10.5t-18 -30.5t18 -33t47 -23t66 -18.5t76 -19.5t76 -26.5t66 -40t47 -59t18 -83.5q0 -63 -25 -109.5t-69.5 -77t-106.5 -46t-136 -15.5q-71 0 -129 19.5t-99.5 52.5t-65 76.5t-25.5 92.5h226q7 -38 39 -57
q14 -9 32 -13.5t35 -4.5q45 0 71.5 13.5t26.5 39.5q0 27 -30.5 41.5t-76.5 26l-100 25t-100 38.5t-76.5 67t-30.5 111q0 57 23.5 100.5t65 72t98.5 43t125 14.5q75 0 130 -18t92.5 -49t58.5 -72.5t27 -88.5h-224z" />
    <glyph glyph-name="T" unicode="T" horiz-adv-x="722" 
d="M31 720h660v-189h-212v-531h-236v531h-212v189z" />
    <glyph glyph-name="U" unicode="U" horiz-adv-x="833" 
d="M70 720h236v-431q0 -27 3.5 -51t15.5 -42t34 -28.5t58 -10.5q32 0 53 9.5t34 27t18 42t5 53.5v431h236v-407q0 -173 -83.5 -252.5t-262.5 -79.5q-84 0 -148.5 17t-108.5 56.5t-67 103t-23 156.5v406z" />
    <glyph glyph-name="V" unicode="V" horiz-adv-x="778" 
d="M22 720h238l126 -479l131 479h238l-250 -720h-237z" />
    <glyph glyph-name="W" unicode="W" horiz-adv-x="1000" 
d="M683 275h2l81 445h228l-179 -720h-232l-83 418h-2l-82 -418h-232l-179 720h228l81 -445h2l86 445h195z" />
    <glyph glyph-name="X" unicode="X" horiz-adv-x="778" 
d="M273 0h-265l255 374l-230 346h265l102 -184l103 184h265l-243 -346l245 -374h-265l-116 202z" />
    <glyph glyph-name="Y" unicode="Y" horiz-adv-x="778" 
d="M507 0h-236v262l-268 458h264l124 -244l124 244h260l-268 -454v-266z" />
    <glyph glyph-name="Z" unicode="Z" horiz-adv-x="722" 
d="M36 0v171l345 381h-331v168h621v-167l-350 -385h364v-168h-649z" />
    <glyph glyph-name="bracketleft" unicode="[" horiz-adv-x="389" 
d="M44 -178v898h312v-148h-129v-602h129v-148h-312z" />
    <glyph glyph-name="backslash" unicode="\" horiz-adv-x="278" 
d="M94 720l216 -810h-126l-216 810h126z" />
    <glyph glyph-name="bracketright" unicode="]" horiz-adv-x="389" 
d="M345 -178h-312v148h129v602h-129v148h312v-898z" />
    <glyph glyph-name="asciicircum" unicode="^" horiz-adv-x="660" 
d="M90 338l180 377h120l180 -377l-104 -47l-136 279l-136 -279z" />
    <glyph glyph-name="underscore" unicode="_" horiz-adv-x="500" 
d="M500 -75v-50h-500v50h500z" />
    <glyph glyph-name="grave" unicode="`" horiz-adv-x="333" 
d="M172 738l100 -148h-137l-171 148h208z" />
    <glyph glyph-name="a" unicode="a" 
d="M306 103q27 0 45.5 10t29.5 27.5t15 41t2 50.5q-26 -12 -53.5 -17.5t-51 -12t-38.5 -18.5t-15 -37q0 -20 17.5 -32t48.5 -12zM419 0l-10 56q-44 -41 -91.5 -56t-105.5 -15q-37 0 -71 9.5t-59.5 29t-41 49t-15.5 70.5q0 59 27.5 92.5t69 50.5t90 23.5t90 12t69 15
t27.5 34.5q0 14 -7.5 22.5t-18 13t-22.5 6t-20 1.5q-11 0 -23 -1.5t-22.5 -7t-18 -15.5t-9.5 -27h-200q0 42 15.5 74.5t50 55t88.5 34.5t132 12q93 0 145.5 -16.5t79 -45.5t32.5 -68.5t6 -86.5v-245q0 -23 4 -36.5t24 -30.5v-10h-215z" />
    <glyph glyph-name="b" unicode="b" 
d="M339 135q25 0 42 11t27.5 29t14.5 40t4 43t-4.5 42.5t-14.5 38.5t-27 28t-42 11q-24 0 -40.5 -10.5t-27 -27t-15.5 -37.5t-5 -41q0 -21 4 -43.5t14.5 -41t27 -30.5t42.5 -12zM256 471q31 36 67.5 52t83.5 16q50 0 92 -20.5t72 -57t47 -87t17 -109.5q0 -58 -13 -109
t-41.5 -89t-73.5 -60t-109 -22q-66 0 -103.5 25.5t-57.5 63.5h-2v-74h-187v720h208v-249z" />
    <glyph glyph-name="c" unicode="c" 
d="M407 324q-1 33 -22 54q-20 21 -54 21q-29 0 -47 -13.5t-28 -34.5t-13 -46.5t-3 -48.5q0 -60 22.5 -95.5t68.5 -35.5q41 0 58.5 23.5t22.5 54.5h210q-7 -60 -32.5 -101.5t-65.5 -67.5q-39 -26 -88.5 -37.5t-104.5 -11.5q-63 0 -118 17.5t-95 52t-63 85.5t-23 117
q0 67 22.5 119.5t62 88.5t94.5 55t120 19q52 0 101.5 -12t89 -37.5t65 -66.5t31.5 -99h-211z" />
    <glyph glyph-name="d" unicode="d" 
d="M323 135q27 0 45 10.5t29.5 27.5t16 39t4.5 45q0 22 -4 43.5t-14.5 38.5t-27.5 28t-43 11t-43 -11t-27 -29t-14 -40t-4 -44q0 -21 3 -42t12 -38t25 -28t42 -11zM432 0v70q-37 -48 -74 -66.5t-87 -18.5q-59 0 -103.5 21t-74.5 57t-45 84.5t-15 104.5q0 65 17 118t47 90.5
t70.5 58t87.5 20.5q50 0 86.5 -14.5t69.5 -53.5v249h208v-720h-187z" />
    <glyph glyph-name="e" unicode="e" 
d="M428 321q0 18 -7.5 34.5t-20 29t-29.5 20t-35 7.5q-47 0 -72 -24.5t-25 -66.5h189zM239 215q0 -23 8.5 -42t22.5 -32.5t32.5 -21t39.5 -7.5q25 0 46 11.5t32 34.5h199q-14 -49 -43.5 -82t-69 -53.5t-85.5 -29t-92 -8.5q-63 0 -117.5 17.5t-94.5 52t-63 85.5t-23 117
q0 64 23 116.5t62.5 89t94 56.5t117.5 20q73 0 130.5 -24t97.5 -67t60.5 -102.5t19.5 -130.5h-397z" />
    <glyph glyph-name="f" unicode="f" horiz-adv-x="389" 
d="M373 524v-120h-87v-404h-208v404h-69v120h70q0 69 13.5 111.5t39.5 65.5t64 30.5t88 7.5h89v-131q-26 0 -43 -1.5t-27.5 -9t-14.5 -25t-2 -48.5h87z" />
    <glyph glyph-name="g" unicode="g" 
d="M324 390q-24 0 -39.5 -9t-25 -25t-13.5 -38t-4 -47q0 -20 5 -38t15 -32t25.5 -23t36.5 -9q24 -1 40.5 8t27 24t15.5 35t5 41q0 22 -4.5 42t-15 36t-27 25.5t-41.5 9.5zM270 -27q0 -11 13 -23q15 -13 45 -13q45 0 64.5 22.5t19.5 79.5v43q-23 -23 -58 -40t-92 -17
q-54 0 -96.5 20t-72 54t-44.5 79t-15 95q0 48 12.5 96t40 85.5t72 61t109.5 23.5q48 0 89.5 -23t69.5 -61v69h183v-422q0 -59 -7 -110t-34.5 -89t-82.5 -59.5t-152 -21.5q-69 0 -119 13t-83 34t-50 48t-21 56h209z" />
    <glyph glyph-name="h" unicode="h" 
d="M48 720h208v-262q32 40 69 60.5t90 20.5q104 0 153.5 -58t49.5 -167v-314h-208v277q0 19 -3 37t-11.5 31.5t-22.5 21.5t-36 8q-48 0 -64.5 -28.5t-16.5 -79.5v-267h-208v720z" />
    <glyph glyph-name="i" unicode="i" horiz-adv-x="333" 
d="M62 739h208v-148h-208v148zM62 0v524h208v-524h-208z" />
    <glyph glyph-name="j" unicode="j" horiz-adv-x="333" 
d="M74 591v148h208v-148h-208zM282 524v-474q0 -49 -5 -90.5t-25.5 -72t-62 -48t-114.5 -17.5q-22 0 -44.5 0.5t-50.5 2.5v148q31 0 49.5 2t28.5 9.5t13 23t3 42.5v474h208z" />
    <glyph glyph-name="k" unicode="k" 
d="M261 147v-147h-208v720h208v-356l133 160h243l-194 -203l219 -321h-250l-112 186z" />
    <glyph glyph-name="l" unicode="l" horiz-adv-x="333" 
d="M62 0v720h208v-720h-208z" />
    <glyph glyph-name="m" unicode="m" horiz-adv-x="1000" 
d="M45 524h191v-78q10 15 26.5 31.5t38 30t47.5 22.5t54 9q71 0 111.5 -27t59.5 -69q34 48 78.5 72t102.5 24q57 0 96 -15.5t62 -45t33 -72t10 -96.5v-310h-208v267q0 58 -14 83t-56 25q-23 0 -37 -9.5t-22 -25t-11 -36.5t-3 -45v-259h-208v267q0 58 -14 83t-56 25
q-23 0 -37 -9.5t-22 -25t-11 -36.5t-3 -45v-259h-208v524z" />
    <glyph glyph-name="n" unicode="n" 
d="M48 524h190v-82q35 47 76.5 72t100.5 25q104 0 153.5 -58t49.5 -167v-314h-208v277q0 19 -3 37t-11.5 31.5t-22.5 21.5t-36 8q-48 0 -64.5 -28.5t-16.5 -79.5v-267h-208v524z" />
    <glyph glyph-name="o" unicode="o" 
d="M335 399q-27 0 -44.5 -12.5t-28 -31.5t-15 -42.5t-4.5 -45.5q0 -75 25 -108.5t65 -33.5q42 0 66 33.5t24 108.5q0 58 -23.5 96t-64.5 36zM35 256q0 68 21.5 121t60.5 89t94 54.5t121 18.5q69 0 124.5 -19.5t94.5 -55.5t59.5 -86t20.5 -111q0 -72 -23 -125t-63 -88
t-94.5 -52t-117.5 -17t-117.5 17t-94.5 51t-63 85t-23 118z" />
    <glyph glyph-name="p" unicode="p" 
d="M333 144q42 0 66 32.5t24 86.5q0 63 -24.5 92.5t-66.5 29.5q-38 0 -61 -32.5t-23 -85.5q0 -55 22 -89t63 -34zM231 524v-78h2q11 24 29.5 41.5t41 29t46.5 17t47 5.5q59 0 103 -22.5t73 -60t43.5 -87t14.5 -103.5q0 -77 -22 -130.5t-57 -87t-78.5 -48.5t-87.5 -15
q-43 0 -75.5 17t-58.5 50v-230h-208v702h187z" />
    <glyph glyph-name="q" unicode="q" 
d="M413 263q0 21 -4 42.5t-14 39t-26.5 28.5t-41.5 11t-42.5 -10t-28.5 -26.5t-16 -37.5t-5 -43q0 -23 4 -45.5t14 -40t28 -28.5t46 -11q23 0 39 11.5t26.5 29.5t15.5 39.5t5 40.5zM616 -178h-208v229q-32 -39 -67.5 -52.5t-86.5 -13.5q-44 0 -85 18t-72.5 54t-50.5 89
t-19 123q0 52 15 100.5t44 86t72.5 60.5t99.5 23q122 0 169 -93h2v78h187v-702z" />
    <glyph glyph-name="r" unicode="r" horiz-adv-x="444" 
d="M52 524h189v-106h2q22 62 61 91.5t100 29.5q7 0 13.5 -1t13.5 -2v-208q-11 2 -21.5 4t-21.5 2q-64 0 -96 -34t-32 -119v-181h-208v524z" />
    <glyph glyph-name="s" unicode="s" horiz-adv-x="611" 
d="M231 163q0 -31 22 -48q21 -16 51 -16q24 0 45 9.5t21 37.5q0 21 -24 31.5t-59.5 18t-77 16t-77 26t-59.5 47.5t-24 81q0 50 23.5 83.5t59.5 53.5t80 28t85 8q43 0 87 -6t81 -24t62 -50.5t30 -84.5h-189q-3 24 -20 38q-16 13 -42 13q-27 0 -43 -8.5t-16 -28.5
q0 -18 24.5 -28t61.5 -18t79.5 -18t79.5 -28t61.5 -48.5t24.5 -79.5q0 -82 -69 -132.5t-213 -50.5q-45 0 -90 8t-82 28t-62 54.5t-29 87.5h198z" />
    <glyph glyph-name="t" unicode="t" horiz-adv-x="444" 
d="M394 0q-102 -6 -163 -3t-92.5 22t-41 58.5t-9.5 107.5v219h-74v120h77v163h205v-163h100v-120h-100v-190q0 -18 2 -30.5t8.5 -20t19.5 -11t35 -3.5h33v-149z" />
    <glyph glyph-name="u" unicode="u" 
d="M618 0h-193v77q-20 -27 -39.5 -45t-42 -28.5t-49 -14.5t-58.5 -4q-86 0 -137 53.5t-51 166.5v319h208v-283q0 -54 18.5 -74.5t56.5 -20.5q45 0 62 32.5t17 93.5v252h208v-524z" />
    <glyph glyph-name="v" unicode="v" horiz-adv-x="611" 
d="M10 524h208l92 -331l91 331h200l-177 -524h-232z" />
    <glyph glyph-name="w" unicode="w" horiz-adv-x="944" 
d="M643 200h2l81 324h197l-167 -524h-203l-81 307h-2l-73 -307h-203l-173 524h203l80 -324h2l81 324h176z" />
    <glyph glyph-name="x" unicode="x" 
d="M215 274l-173 250h231l66 -131l70 131h228l-179 -249l181 -275h-232l-74 150l-76 -150h-230z" />
    <glyph glyph-name="y" unicode="y" horiz-adv-x="611" 
d="M307 201l91 323h200l-168 -489q-21 -61 -38.5 -102t-44 -65.5t-68.5 -35t-111 -10.5q-29 0 -54.5 2t-37.5 2v145q11 0 21.5 -0.5t21.5 -0.5q49 0 62 16.5t-3 60.5l-172 477h209z" />
    <glyph glyph-name="z" unicode="z" horiz-adv-x="556" 
d="M26 0v139l237 233h-216v152h472v-145l-229 -227h240v-152h-504z" />
    <glyph glyph-name="braceleft" unicode="{" horiz-adv-x="389" 
d="M292 -57q0 -51 16 -79t59 -40v-2q-99 -7 -153.5 2t-79.5 30.5t-29.5 54t-4.5 74.5v176q0 52 -14.5 78.5t-60.5 39.5v2q43 11 59 38.5t16 78.5v200q0 46 8 76t36 46t80.5 20.5t142.5 0.5v-2q-44 -14 -59.5 -41.5t-15.5 -79.5v-201q0 -57 -15.5 -90.5t-66.5 -45.5v-2
q24 -6 40 -16.5t25 -27.5t13 -42.5t4 -61.5v-186z" />
    <glyph glyph-name="bar" unicode="|" horiz-adv-x="278" 
d="M198 750v-1000h-119v1000h119z" />
    <glyph glyph-name="braceright" unicode="}" horiz-adv-x="389" 
d="M289 -35q0 -47 -8 -76.5t-36 -45.5t-80.5 -20.5t-142.5 -0.5v2q22 7 36.5 17t23 24.5t12 34t3.5 45.5v201q0 57 15.5 90.5t66.5 45.5v2q-24 6 -40 16.5t-25 27.5t-13 42.5t-4 61.5v186q0 51 -16 79t-59 40v2q99 7 153.5 -2t79.5 -30.5t29.5 -54t4.5 -74.5v-176
q0 -26 3 -45.5t11 -33.5t23 -23.5t38 -15.5v-2q-43 -11 -59 -38.5t-16 -78.5v-200z" />
    <glyph glyph-name="asciitilde" unicode="~" horiz-adv-x="660" 
d="M582 286q-13 -20 -26.5 -41t-30.5 -38t-38 -27.5t-49 -10.5q-33 0 -61.5 10t-53.5 23t-48 23t-46 10q-18 0 -31 -8t-23 -20t-18 -26.5t-15 -27.5l-64 74q12 21 26.5 43t32.5 40t40.5 29.5t49.5 11.5q28 0 57 -10t58 -23q28 -12 53 -22.5t42 -10.5q16 0 27.5 7.5t21 18.5
t17 24t15.5 24z" />
    <glyph glyph-name="Euro" 
d="M338 222q15 -40 48 -60.5t78 -20.5q12 0 31.5 1t42 7.5t45.5 20.5t42 41v-171q-36 -30 -88.5 -42.5t-103.5 -12.5q-63 0 -113 18t-88 49.5t-64 75t-41 94.5h-123l37 88h75q-2 14 -2 28v29h-98l37 88h69q13 70 45 119.5t75.5 80.5t94.5 45.5t104 14.5q64 0 121 -20
t102 -68l-57 -141q-8 12 -20 24.5t-30 23.5t-42.5 18t-55.5 7q-28 0 -49.5 -8.5t-36.5 -23t-24.5 -33t-14.5 -39.5h258l-36 -88h-233q-1 -14 -1.5 -28.5t1.5 -28.5h209l-36 -88h-158z" />
    <glyph glyph-name="Euro" unicode="&#x20ac;" 
d="M338 222q15 -40 48 -60.5t78 -20.5q12 0 31.5 1t42 7.5t45.5 20.5t42 41v-171q-36 -30 -88.5 -42.5t-103.5 -12.5q-63 0 -113 18t-88 49.5t-64 75t-41 94.5h-123l37 88h75q-2 14 -2 28v29h-98l37 88h69q13 70 45 119.5t75.5 80.5t94.5 45.5t104 14.5q64 0 121 -20
t102 -68l-57 -141q-8 12 -20 24.5t-30 23.5t-42.5 18t-55.5 7q-28 0 -49.5 -8.5t-36.5 -23t-24.5 -33t-14.5 -39.5h258l-36 -88h-233q-1 -14 -1.5 -28.5t1.5 -28.5h209l-36 -88h-158z" />
    <glyph glyph-name="exclamdown" unicode="&#xa1;" horiz-adv-x="333" 
d="M63 330v194h207v-194h-207zM60 -193v169l51 284h112l50 -284v-169h-213z" />
    <glyph glyph-name="cent" unicode="&#xa2;" 
d="M376 395q-21 9 -43 9q-50 0 -73.5 -39t-23.5 -98q0 -29 6.5 -60t23.5 -55zM247 -147h-135l69 162q-36 16 -63 41.5t-45.5 57.5t-28 68.5t-9.5 75.5q0 76 24.5 129t66 87t96 49.5t115.5 15.5q17 0 35 -2l36 -4l51 122h133l-69 -160q46 -30 68 -72t30 -95h-200l-93 -208h21
q71 14 80 85h199q-15 -120 -96 -171t-230 -49z" />
    <glyph glyph-name="sterling" unicode="&#xa3;" 
d="M35 158q23 15 41 31t29.5 35t16 42t0.5 53h-89v90h60q-11 20 -22.5 50t-11.5 53q0 60 25 101.5t65 66.5t90.5 36t102.5 11q63 0 115.5 -14t90.5 -44.5t59.5 -78.5t23.5 -116h-190q-2 48 -23 71q-23 25 -69 25q-35 0 -59 -22t-16 -59q5 -17 13.5 -33t16.5 -31l8 -16h104
v-90h-92q-5 -31 -21 -60t-42 -49l-9 -7q8 0 20.5 2.5t23.5 2.5q17 0 35.5 -2.5t44.5 -7.5t47.5 -12.5t45.5 -7.5q29 0 52 14t43 32l80 -167q-13 -13 -32 -25.5t-40.5 -22t-43 -15.5t-39.5 -6q-33 0 -62 6.5t-63 19.5q-41 15 -66 23t-55 8q-21 0 -37 -3.5t-30.5 -9.5
t-28.5 -14.5t-31 -18.5z" />
    <glyph glyph-name="currency" unicode="&#xa4;" horiz-adv-x="660" 
d="M330 187q26 0 48.5 10t39 27t26 39.5t9.5 46.5t-9.5 46.5t-26 39.5t-39 27t-48.5 10t-48.5 -10t-39 -27t-26 -39.5t-9.5 -46.5t9.5 -46.5t26 -39.5t39 -27t48.5 -10zM120 181q-18 32 -27.5 61t-9.5 67q0 37 9 68.5t28 62.5l-44 43l79 80l44 -44q29 17 62.5 27.5
t66.5 10.5q73 0 134 -38l44 44l77 -80l-44 -43q19 -30 28.5 -62t9.5 -68q0 -34 -9 -67.5t-29 -61.5l44 -44l-77 -79l-44 44q-30 -18 -62 -28.5t-67 -10.5q-74 0 -134 39l-44 -44l-79 79z" />
    <glyph glyph-name="yen" unicode="&#xa5;" 
d="M441 720h227l-122 -240h122v-95h-173l-49 -95h222v-95h-231v-195h-208v195h-230v95h222l-49 95h-173v95h123l-123 240h231l106 -244z" />
    <glyph glyph-name="brokenbar" unicode="&#xa6;" horiz-adv-x="278" 
d="M198 175v-350h-119v350h119zM198 675v-350h-119v350h119z" />
    <glyph glyph-name="section" unicode="&#xa7;" 
d="M399 199q20 3 37 18t17 34t-9 29t-23 16l-154 69q-20 -6 -37 -20t-17 -34t12.5 -30.5t33.5 -20.5zM400 548q-2 34 -16 54.5t-51 20.5q-11 0 -23 -2.5t-22 -7.5t-16 -14t-6 -21q0 -26 24 -41.5t60.5 -29t79 -28.5t79 -39t60.5 -62t24 -96q0 -57 -27 -92.5t-71 -55.5
q33 -26 51.5 -59t18.5 -75q0 -38 -18 -69.5t-49 -54t-72 -35t-86 -12.5q-47 0 -89 10.5t-74 34t-51.5 60t-21.5 88.5h155q3 -35 20 -55q19 -22 54 -22q32 0 53 9.5t21 38.5q0 25 -24.5 40t-62 27t-80.5 25.5t-80.5 37.5t-62 62.5t-24.5 100.5q0 54 30.5 91.5t72.5 52.5
q-37 30 -52.5 65.5t-15.5 73.5q0 46 20 78.5t52 52.5t73.5 29.5t83.5 9.5t79 -10.5t66 -31.5t48 -53t24 -76q3 -9 3 -20h-157z" />
    <glyph glyph-name="dieresis" unicode="&#xa8;" horiz-adv-x="333" 
d="M-29 596v130h169v-130h-169zM199 726h169v-130h-169v130z" />
    <glyph glyph-name="copyright" unicode="&#xa9;" horiz-adv-x="800" 
d="M507 439q-6 35 -32.5 52t-61.5 17q-28 0 -49 -11.5t-35 -31.5t-21 -46t-7 -54q0 -27 7.5 -53.5t22.5 -47t36.5 -33.5t48.5 -13q17 0 33 5t28.5 14.5t20.5 23.5t9 31h86q-4 -35 -20 -62t-40 -46t-54 -29t-63 -10q-48 0 -86.5 17t-66 46.5t-42.5 69t-15 85.5q0 47 14.5 87
t41.5 69.5t65.5 46t86.5 16.5q69 0 118 -38t61 -105h-86zM400 71q61 0 112 21.5t88 59.5t58 91.5t21 116.5t-21 116.5t-58 91.5t-88 59.5t-112 21.5q-62 0 -113.5 -21.5t-88 -59.5t-57 -91.5t-20.5 -116.5t20.5 -116.5t57 -91.5t88 -59.5t113.5 -21.5zM400 -19
q-79 0 -148 29.5t-120.5 81t-81 120.5t-29.5 148t29.5 148t81 120.5t120.5 81t148 29.5t148 -29.5t120.5 -81t81 -120.5t29.5 -148t-29.5 -148t-81 -120.5t-120.5 -81t-148 -29.5z" />
    <glyph glyph-name="ordfeminine" unicode="&#xaa;" horiz-adv-x="400" 
d="M185 478q36 0 49 22.5t11 54.5q-11 -5 -29.5 -8.5t-36 -8.5t-30 -13t-12.5 -21q0 -11 14 -18.5t34 -7.5zM259 416l-7 34q-29 -25 -59.5 -34t-68.5 -9q-24 0 -46 5.5t-39 17t-27 29.5t-10 43q0 36 18 56t45 30t58.5 14t58.5 7t45 9t18 21q0 8 -5 13t-12 7.5t-14.5 3.5
t-12.5 1q-14 0 -29.5 -5t-18.5 -25h-130q0 51 43 77q23 14 57.5 21t85.5 7q60 0 94.5 -10t51.5 -27t21 -41t4 -52v-147q0 -16 4 -23.5t14 -13.5v-9h-139z" />
    <glyph glyph-name="guillemotleft" unicode="&#xab;" 
d="M364 182v146l183 120v-131l-101 -65l101 -59v-129zM120 182v146l183 120v-131l-101 -65l101 -59v-129z" />
    <glyph glyph-name="logicalnot" unicode="&#xac;" horiz-adv-x="660" 
d="M466 296h-388v116h504v-292h-116v176z" />
    <glyph glyph-name="registered" unicode="&#xae;" horiz-adv-x="800" 
d="M443 388q35 -1 56.5 11t21.5 50q0 21 -10 31.5t-24.5 15t-31.5 4.5h-32h-93v-112h113zM588 154h-99l-91 173h-68v-173h-86v409h198q81 0 120 -26.5t39 -98.5q0 -57 -29 -82t-83 -29zM400 71q61 0 112 21.5t88 59.5t58 91.5t21 116.5t-21 116.5t-58 91.5t-88 59.5
t-112 21.5q-62 0 -113.5 -21.5t-88 -59.5t-57 -91.5t-20.5 -116.5t20.5 -116.5t57 -91.5t88 -59.5t113.5 -21.5zM400 -19q-79 0 -148 30t-120.5 81.5t-81 120.5t-29.5 147t29.5 147t81 120.5t120.5 81.5t148 30q78 0 147 -30t120.5 -81.5t81.5 -120.5t30 -147t-30 -147
t-81.5 -120.5t-120.5 -81.5t-147 -30z" />
    <glyph glyph-name="macron" unicode="&#xaf;" horiz-adv-x="333" 
d="M-19 619v90h377v-90h-377z" />
    <glyph glyph-name="macron" unicode="&#x2c9;" horiz-adv-x="333" 
d="M-19 619v90h377v-90h-377z" />
    <glyph glyph-name="degree" unicode="&#xb0;" horiz-adv-x="400" 
d="M271 562q0 30 -21 52t-52 22q-30 0 -50 -22t-19 -52q1 -32 20 -50t50 -18q30 0 51 18t21 50zM350 565q0 -31 -12 -58.5t-32.5 -47.5t-47.5 -32t-58 -12t-58.5 12t-47.5 32t-32 47.5t-12 58.5t11.5 58t32 47.5t48 32.5t58.5 12t58 -12t47.5 -32.5t32.5 -47.5t12 -58z" />
    <glyph glyph-name="plusminus" unicode="&#xb1;" horiz-adv-x="660" 
d="M78 116h504v-116h-504v116zM272 603h116v-161h194v-116h-194v-168h-116v168h-194v116h194v161z" />
    <glyph glyph-name="twosuperior" unicode="&#xb2;" horiz-adv-x="400" 
d="M393 412v-102h-386q-2 37 12.5 65.5t42.5 54.5q29 28 63.5 48.5t64 39.5t49.5 39t20 46q0 20 -17.5 31t-37.5 11t-32.5 -7t-20.5 -18t-11 -26t-3 -30h-121q2 94 53 134.5t141 40.5q36 0 69 -7.5t58.5 -24t41 -42.5t15.5 -63q0 -28 -10.5 -48.5t-28 -36t-39.5 -28.5
l-44 -26q-25 -14 -49.5 -26.5t-42.5 -24.5h213z" />
    <glyph glyph-name="threesuperior" unicode="&#xb3;" horiz-adv-x="400" 
d="M134 457q-2 -29 16 -46q18 -16 49 -16q30 0 45 15t15 34q0 18 -8.5 27.5t-21.5 14t-27.5 5t-26.5 0.5v73q12 -1 26 0.5t26 6t20 13.5t8 24q0 20 -16.5 28.5t-36.5 8.5q-24 0 -40 -11t-19 -34h-122q1 37 17 63t41 43t58 25t69 8q82 0 129 -32t47 -86q0 -29 -12.5 -50
t-40.5 -34q31 -11 48.5 -33.5t17.5 -54.5q0 -74 -55 -111t-148 -37q-40 0 -74.5 9.5t-59 29t-38.5 49t-14 68.5h128z" />
    <glyph glyph-name="acute" unicode="&#xb4;" horiz-adv-x="333" 
d="M166 738h209l-172 -148h-137z" />
    <glyph glyph-name="mu" unicode="&#xb5;" 
d="M425 0v77q-39 -54 -79 -72.5t-90 -16.5v-166h-208v702h208v-283q0 -54 18.5 -74.5t56.5 -20.5q45 0 62 32.5t17 93.5v252h208v-524h-193z" />
    <glyph glyph-name="mu" unicode="&#x3bc;" 
d="M425 0v77q-39 -54 -79 -72.5t-90 -16.5v-166h-208v702h208v-283q0 -54 18.5 -74.5t56.5 -20.5q45 0 62 32.5t17 93.5v252h208v-524h-193z" />
    <glyph glyph-name="paragraph" unicode="&#xb6;" horiz-adv-x="850" 
d="M410 -178h-164v549q-87 0 -139.5 45t-52.5 126q0 54 18.5 88.5t51.5 54.5t78 27.5t97 7.5h408v-164h-50v-734h-164v734h-83v-734z" />
    <glyph glyph-name="periodcentered" unicode="&#xb7;" horiz-adv-x="333" 
d="M166 126q-27 0 -50.5 10.5t-41 28t-28 41t-10.5 50.5t10.5 50.5t28 41t41 28t50.5 10.5t50.5 -10.5t41 -28t28 -41t10.5 -50.5t-10.5 -50.5t-28 -41t-41 -28t-50.5 -10.5z" />
    <glyph glyph-name="periodcentered" unicode="&#x2219;" horiz-adv-x="333" 
d="M166 126q-27 0 -50.5 10.5t-41 28t-28 41t-10.5 50.5t10.5 50.5t28 41t41 28t50.5 10.5t50.5 -10.5t41 -28t28 -41t10.5 -50.5t-10.5 -50.5t-28 -41t-41 -28t-50.5 -10.5z" />
    <glyph glyph-name="cedilla" unicode="&#xb8;" horiz-adv-x="333" 
d="M49 -158q21 -5 41.5 -12.5t43.5 -7.5q11 0 21 2t19 9q12 9 12.5 22.5t-9.5 24t-28.5 13.5t-44.5 -9l-25 24l55 92h58l-39 -64q17 7 34 5t26 -3q16 -2 31 -9.5t25.5 -20t15 -28.5t-0.5 -34q-6 -20 -19 -34.5t-30 -24.5t-37 -14.5t-39 -4.5q-35 0 -66.5 8t-64.5 20z" />
    <glyph glyph-name="onesuperior" unicode="&#xb9;" horiz-adv-x="400" 
d="M321 310h-135v247h-106v85q54 1 90.5 21.5t47.5 75.5h103v-429z" />
    <glyph glyph-name="ordmasculine" unicode="&#xba;" horiz-adv-x="400" 
d="M201 655q-17 0 -28.5 -7.5t-18.5 -18.5t-10 -25.5t-3 -27.5q0 -45 16.5 -65t42.5 -20q27 0 43 20t16 65q0 34 -16 57t-42 22zM6 570q0 41 14 72.5t39.5 53t61 32.5t78.5 11q91 0 143 -44.5t52 -118.5q0 -43 -15 -75t-41 -53t-61.5 -31t-76.5 -10t-76.5 10.5t-61.5 30.5
t-41 50.5t-15 71.5z" />
    <glyph glyph-name="guillemotright" unicode="&#xbb;" 
d="M303 330v-146l-183 -120v131l101 65l-101 59v129zM547 330v-146l-183 -120v131l101 65l-101 59v129z" />
    <glyph glyph-name="onequarter" unicode="&#xbc;" horiz-adv-x="1000" 
d="M665 181h109v129zM281 310h-135v247h-106v85q54 1 90.5 21.5t47.5 75.5h103v-429zM233 -15l403 730h98l-403 -730h-98zM563 188l214 235h126v-242h57v-93h-57v-88h-129v88h-211v100z" />
    <glyph glyph-name="onehalf" unicode="&#xbd;" horiz-adv-x="1000" 
d="M281 310h-135v247h-106v85q54 1 90.5 21.5t47.5 75.5h103v-429zM193 -15l403 730h98l-403 -730h-98zM959 102v-102h-386q-2 37 12.5 65.5t42.5 54.5q29 28 63.5 48.5t64 39.5t49.5 39t20 46q0 20 -17.5 31t-37.5 11t-32.5 -7t-20.5 -18t-11 -26t-3 -30h-121
q2 94 53 134.5t141 40.5q36 0 69 -7.5t58.5 -24t41 -42.5t15.5 -63q0 -28 -10.5 -48.5t-28 -36t-39.5 -28.5l-44 -26q-25 -14 -49.5 -26.5t-42.5 -24.5h213z" />
    <glyph glyph-name="threequarters" unicode="&#xbe;" horiz-adv-x="1000" 
d="M665 181h109v129zM273 -15l403 730h98l-403 -730h-98zM168 433q-2 -29 16 -46q18 -16 49 -16q30 0 45 15t15 34q0 18 -8.5 27.5t-21.5 14t-27.5 5t-26.5 0.5v73q12 -1 26 0.5t26 6t20 13.5t8 24q0 20 -16.5 28.5t-36.5 8.5q-24 0 -40 -11t-19 -34h-122q1 37 17 63t41 43
t58 25t69 8q82 0 129 -32t47 -86q0 -29 -12.5 -50t-40.5 -34q31 -11 48.5 -33.5t17.5 -54.5q0 -74 -55 -111t-148 -37q-40 0 -74.5 9.5t-59 29t-38.5 49t-14 68.5h128zM563 188l214 235h126v-242h57v-93h-57v-88h-129v88h-211v100z" />
    <glyph glyph-name="questiondown" unicode="&#xbf;" horiz-adv-x="611" 
d="M212 329v195h206v-195h-206zM408 254q4 -58 -7 -93t-29.5 -56t-41.5 -32t-43.5 -20.5t-34.5 -22.5t-14 -38q0 -32 23 -45t51 -13q36 0 51 22.5t14 60.5h207q-3 -60 -27 -104t-62.5 -72.5t-89 -42.5t-105.5 -14q-57 0 -106.5 13t-86 38.5t-57 63.5t-20.5 89q0 43 16 71
t39 47t49.5 32.5t48 28.5t34 35t7.5 52h184z" />
    <glyph glyph-name="Agrave" unicode="&#xc0;" horiz-adv-x="778" 
d="M387 503l-73 -258h149zM395 934l100 -148h-137l-171 148h208zM11 0l258 720h240l258 -720h-235l-28 95h-235l-27 -95h-231z" />
    <glyph glyph-name="Aacute" unicode="&#xc1;" horiz-adv-x="778" 
d="M387 503l-73 -258h149zM389 934h209l-172 -148h-137zM11 0l258 720h240l258 -720h-235l-28 95h-235l-27 -95h-231z" />
    <glyph glyph-name="Acircumflex" unicode="&#xc2;" horiz-adv-x="778" 
d="M387 503l-73 -258h149zM310 934h164l122 -148h-148l-56 76l-56 -76h-147zM11 0l258 720h240l258 -720h-235l-28 95h-235l-27 -95h-231z" />
    <glyph glyph-name="Atilde" unicode="&#xc3;" horiz-adv-x="778" 
d="M387 503l-73 -258h149zM588 925q-4 -27 -12.5 -51t-23.5 -42t-37 -29t-52 -11q-25 0 -49.5 7t-47.5 17q-27 12 -43 13t-25.5 -5t-14 -16.5t-8.5 -21.5h-79q3 25 12 50t24 45t36.5 33t50.5 13q19 0 34 -3.5t29.5 -8.5t29 -11t32.5 -12q29 -9 45.5 4.5t18.5 28.5h80zM11 0
l258 720h240l258 -720h-235l-28 95h-235l-27 -95h-231z" />
    <glyph glyph-name="Adieresis" unicode="&#xc4;" horiz-adv-x="778" 
d="M387 503l-73 -258h149zM422 922h169v-130h-169v130zM194 792v130h169v-130h-169zM11 0l258 720h240l258 -720h-235l-28 95h-235l-27 -95h-231z" />
    <glyph glyph-name="Aring" unicode="&#xc5;" horiz-adv-x="778" 
d="M390 953q-21 0 -37 -15.5t-16 -36.5t16 -36.5t37 -15.5t36.5 16t15.5 36t-15.5 36t-36.5 16zM387 503l-73 -258h149zM390 789q-23 0 -43.5 9t-36 24t-24.5 35.5t-9 43.5t9 43.5t24.5 35.5t36 24t43.5 9t43.5 -9t35.5 -24t24 -35.5t9 -43.5t-9 -43.5t-24 -35.5t-35.5 -24
t-43.5 -9zM11 0l258 720h240l258 -720h-235l-28 95h-235l-27 -95h-231z" />
    <glyph glyph-name="AE" unicode="&#xc6;" horiz-adv-x="1000" 
d="M309 254h150v298h-64zM459 104h-194l-31 -104h-231l240 720h724v-168h-292v-103h241v-168h-241v-113h306v-168h-522v104z" />
    <glyph glyph-name="Ccedilla" unicode="&#xc7;" horiz-adv-x="778" 
d="M519 445q-5 57 -38.5 87.5t-89.5 30.5q-63 0 -98 -52.5t-35 -157.5q0 -38 5.5 -73.5t20.5 -62.5t43 -43.5t73 -16.5q57 0 85.5 35t35.5 87h227q-8 -70 -36 -125t-72.5 -93.5t-104.5 -59t-131 -20.5h-1l-27 -45q17 7 34 5t26 -3q16 -2 31 -9.5t25.5 -20t15 -28.5t-0.5 -34
q-6 -20 -19 -34.5t-30 -24.5t-37 -14.5t-39 -4.5q-35 0 -66.5 8t-64.5 20l21 46q21 -5 41.5 -12.5t43.5 -7.5q11 0 21 2t19 9q12 9 12.5 22.5t-9.5 24t-28.5 13.5t-44.5 -9l-25 24l46 77q-77 7 -137.5 36.5t-102.5 78t-64 114.5t-22 147q0 87 28 157t76.5 119t114 75.5
t140.5 26.5q165 0 256.5 -77.5t105.5 -216.5h-224z" />
    <glyph glyph-name="Egrave" unicode="&#xc8;" horiz-adv-x="722" 
d="M367 934l100 -148h-137l-171 148h208zM76 0v720h587v-168h-351v-103h297v-168h-297v-113h365v-168h-601z" />
    <glyph glyph-name="Eacute" unicode="&#xc9;" horiz-adv-x="722" 
d="M361 934h209l-172 -148h-137zM76 0v720h587v-168h-351v-103h297v-168h-297v-113h365v-168h-601z" />
    <glyph glyph-name="Ecircumflex" unicode="&#xca;" horiz-adv-x="722" 
d="M282 934h164l122 -148h-148l-56 76l-56 -76h-147zM76 0v720h587v-168h-351v-103h297v-168h-297v-113h365v-168h-601z" />
    <glyph glyph-name="Edieresis" unicode="&#xcb;" horiz-adv-x="722" 
d="M394 922h169v-130h-169v130zM166 792v130h169v-130h-169zM76 0v720h587v-168h-351v-103h297v-168h-297v-113h365v-168h-601z" />
    <glyph glyph-name="Igrave" unicode="&#xcc;" horiz-adv-x="389" 
d="M200 934l100 -148h-137l-171 148h208zM76 0v720h236v-720h-236z" />
    <glyph glyph-name="Iacute" unicode="&#xcd;" horiz-adv-x="389" 
d="M194 934h209l-172 -148h-137zM76 0v720h236v-720h-236z" />
    <glyph glyph-name="Icircumflex" unicode="&#xce;" horiz-adv-x="389" 
d="M115 934h164l122 -148h-148l-56 76l-56 -76h-147zM76 0v720h236v-720h-236z" />
    <glyph glyph-name="Idieresis" unicode="&#xcf;" horiz-adv-x="389" 
d="M227 922h169v-130h-169v130zM-1 792v130h169v-130h-169zM76 0v720h236v-720h-236z" />
    <glyph glyph-name="Eth" unicode="&#xd0;" horiz-adv-x="778" 
d="M301 477h105v-198h-105v-111h50q82 0 126 46t44 148q0 56 -9.5 93t-30.5 58.5t-54.5 30t-80.5 8.5h-45v-75zM65 720h316q87 0 156.5 -20.5t118.5 -63t75 -107.5t26 -154q0 -102 -27 -173t-77 -116t-120.5 -65.5t-157.5 -20.5h-310v279h-65v198h65v243z" />
    <glyph glyph-name="Ntilde" unicode="&#xd1;" horiz-adv-x="833" 
d="M615 925q-4 -27 -12.5 -51t-23.5 -42t-37 -29t-52 -11q-25 0 -49.5 7t-47.5 17q-27 12 -43 13t-25.5 -5t-14 -16.5t-8.5 -21.5h-79q3 25 12 50t24 45t36.5 33t50.5 13q19 0 34 -3.5t29.5 -8.5t29 -11t32.5 -12q29 -9 45.5 4.5t18.5 28.5h80zM547 327l-9 164v229h226v-720
h-221l-257 392l9 -164v-228h-226v720h221z" />
    <glyph glyph-name="Ograve" unicode="&#xd2;" horiz-adv-x="833" 
d="M422 934l100 -148h-137l-171 148h208zM414 563q-40 0 -67 -18.5t-43 -47t-22.5 -64t-6.5 -69.5q0 -35 6 -71.5t22 -66.5t43.5 -49.5t69.5 -19.5q38 0 65 15.5t44 43.5t25 65.5t8 82.5q0 37 -8 73t-25 64.5t-44.5 45.5t-66.5 16zM416 739q96 0 167.5 -32t118 -84.5
t69.5 -120t23 -138.5q0 -92 -29 -163.5t-80 -120t-120 -74t-149 -25.5q-85 0 -154.5 25.5t-119 75t-76.5 121t-27 163.5q0 85 27.5 153.5t77 117.5t119 75.5t153.5 26.5z" />
    <glyph glyph-name="Oacute" unicode="&#xd3;" horiz-adv-x="833" 
d="M416 934h209l-172 -148h-137zM414 563q-40 0 -67 -18.5t-43 -47t-22.5 -64t-6.5 -69.5q0 -35 6 -71.5t22 -66.5t43.5 -49.5t69.5 -19.5q38 0 65 15.5t44 43.5t25 65.5t8 82.5q0 37 -8 73t-25 64.5t-44.5 45.5t-66.5 16zM416 739q96 0 167.5 -32t118 -84.5t69.5 -120
t23 -138.5q0 -92 -29 -163.5t-80 -120t-120 -74t-149 -25.5q-85 0 -154.5 25.5t-119 75t-76.5 121t-27 163.5q0 85 27.5 153.5t77 117.5t119 75.5t153.5 26.5z" />
    <glyph glyph-name="Ocircumflex" unicode="&#xd4;" horiz-adv-x="833" 
d="M337 934h164l122 -148h-148l-56 76l-56 -76h-147zM414 563q-40 0 -67 -18.5t-43 -47t-22.5 -64t-6.5 -69.5q0 -35 6 -71.5t22 -66.5t43.5 -49.5t69.5 -19.5q38 0 65 15.5t44 43.5t25 65.5t8 82.5q0 37 -8 73t-25 64.5t-44.5 45.5t-66.5 16zM416 739q96 0 167.5 -32
t118 -84.5t69.5 -120t23 -138.5q0 -92 -29 -163.5t-80 -120t-120 -74t-149 -25.5q-85 0 -154.5 25.5t-119 75t-76.5 121t-27 163.5q0 85 27.5 153.5t77 117.5t119 75.5t153.5 26.5z" />
    <glyph glyph-name="Otilde" unicode="&#xd5;" horiz-adv-x="833" 
d="M615 925q-4 -27 -12.5 -51t-23.5 -42t-37 -29t-52 -11q-25 0 -49.5 7t-47.5 17q-27 12 -43 13t-25.5 -5t-14 -16.5t-8.5 -21.5h-79q3 25 12 50t24 45t36.5 33t50.5 13q19 0 34 -3.5t29.5 -8.5t29 -11t32.5 -12q29 -9 45.5 4.5t18.5 28.5h80zM414 563q-40 0 -67 -18.5
t-43 -47t-22.5 -64t-6.5 -69.5q0 -35 6 -71.5t22 -66.5t43.5 -49.5t69.5 -19.5q38 0 65 15.5t44 43.5t25 65.5t8 82.5q0 37 -8 73t-25 64.5t-44.5 45.5t-66.5 16zM416 739q96 0 167.5 -32t118 -84.5t69.5 -120t23 -138.5q0 -92 -29 -163.5t-80 -120t-120 -74t-149 -25.5
q-85 0 -154.5 25.5t-119 75t-76.5 121t-27 163.5q0 85 27.5 153.5t77 117.5t119 75.5t153.5 26.5z" />
    <glyph glyph-name="Odieresis" unicode="&#xd6;" horiz-adv-x="833" 
d="M221 792v130h169v-130h-169zM449 922h169v-130h-169v130zM414 563q-40 0 -67 -18.5t-43 -47t-22.5 -64t-6.5 -69.5q0 -35 6 -71.5t22 -66.5t43.5 -49.5t69.5 -19.5q38 0 65 15.5t44 43.5t25 65.5t8 82.5q0 37 -8 73t-25 64.5t-44.5 45.5t-66.5 16zM416 739
q96 0 167.5 -32t118 -84.5t69.5 -120t23 -138.5q0 -92 -29 -163.5t-80 -120t-120 -74t-149 -25.5q-85 0 -154.5 25.5t-119 75t-76.5 121t-27 163.5q0 85 27.5 153.5t77 117.5t119 75.5t153.5 26.5z" />
    <glyph glyph-name="multiply" unicode="&#xd7;" horiz-adv-x="660" 
d="M160 3l-81 80l170 170l-170 170l81 82l170 -170l169 170l82 -82l-170 -169l170 -170l-82 -81l-169 169z" />
    <glyph glyph-name="Oslash" unicode="&#xd8;" horiz-adv-x="833" 
d="M343 179q14 -10 32 -16t41 -6q35 0 61.5 15.5t44.5 43.5t27 65.5t9 82.5q0 20 -2 44.5t-10 47.5zM495 536q-32 27 -81 27q-40 0 -67 -18.5t-43 -47t-22.5 -64t-6.5 -69.5q0 -27 2 -55.5t13 -54.5zM682 641q24 -21 44.5 -51.5t35.5 -67t23.5 -77t8.5 -81.5
q0 -92 -29 -163.5t-79.5 -120.5t-119.5 -74t-150 -25q-65 0 -110 11.5t-78 29.5l-71 -98l-73 48l72 99q-54 47 -85.5 118t-31.5 177q0 85 27.5 153.5t77 117.5t119 75.5t153.5 26.5q106 0 193 -46l66 91l75 -51z" />
    <glyph glyph-name="Ugrave" unicode="&#xd9;" horiz-adv-x="833" 
d="M422 934l100 -148h-137l-171 148h208zM70 720h236v-431q0 -27 3.5 -51t15.5 -42t34 -28.5t58 -10.5q32 0 53 9.5t34 27t18 42t5 53.5v431h236v-407q0 -173 -83.5 -252.5t-262.5 -79.5q-84 0 -148.5 17t-108.5 56.5t-67 103t-23 156.5v406z" />
    <glyph glyph-name="Uacute" unicode="&#xda;" horiz-adv-x="833" 
d="M416 934h209l-172 -148h-137zM70 720h236v-431q0 -27 3.5 -51t15.5 -42t34 -28.5t58 -10.5q32 0 53 9.5t34 27t18 42t5 53.5v431h236v-407q0 -173 -83.5 -252.5t-262.5 -79.5q-84 0 -148.5 17t-108.5 56.5t-67 103t-23 156.5v406z" />
    <glyph glyph-name="Ucircumflex" unicode="&#xdb;" horiz-adv-x="833" 
d="M337 934h164l122 -148h-148l-56 76l-56 -76h-147zM70 720h236v-431q0 -27 3.5 -51t15.5 -42t34 -28.5t58 -10.5q32 0 53 9.5t34 27t18 42t5 53.5v431h236v-407q0 -173 -83.5 -252.5t-262.5 -79.5q-84 0 -148.5 17t-108.5 56.5t-67 103t-23 156.5v406z" />
    <glyph glyph-name="Udieresis" unicode="&#xdc;" horiz-adv-x="833" 
d="M449 922h169v-130h-169v130zM221 792v130h169v-130h-169zM70 720h236v-431q0 -27 3.5 -51t15.5 -42t34 -28.5t58 -10.5q32 0 53 9.5t34 27t18 42t5 53.5v431h236v-407q0 -173 -83.5 -252.5t-262.5 -79.5q-84 0 -148.5 17t-108.5 56.5t-67 103t-23 156.5v406z" />
    <glyph glyph-name="Yacute" unicode="&#xdd;" horiz-adv-x="778" 
d="M389 934h209l-172 -148h-137zM507 0h-236v262l-268 458h264l124 -244l124 244h260l-268 -454v-266z" />
    <glyph glyph-name="Thorn" unicode="&#xde;" horiz-adv-x="722" 
d="M391 292q42 0 68.5 18.5t26.5 65.5q0 25 -12.5 40t-31.5 23t-41 10.5t-41 2.5h-67v-160h98zM57 0v720h236v-100h111q155 0 231 -66t76 -177q0 -58 -17.5 -105t-54.5 -80t-93 -50.5t-134 -17.5h-119v-124h-236z" />
    <glyph glyph-name="germandbls" unicode="&#xdf;" 
d="M311 452q38 -1 58.5 16.5t20.5 55.5q0 32 -16.5 53.5t-51.5 21.5q-25 0 -38.5 -8.5t-19.5 -23t-7 -33t-1 -38.5v-496h-208v489q0 68 19 115.5t55 77.5t87 43.5t115 13.5q56 0 104 -12t83 -35.5t54.5 -58.5t19.5 -81q0 -100 -89 -142q71 -27 101 -72.5t30 -121.5
q0 -57 -19 -100t-50.5 -72t-74 -44t-88.5 -15q-43 0 -86 9v129q63 -11 86.5 17t23.5 86q0 57 -24 85.5t-84 26.5v114z" />
    <glyph glyph-name="agrave" unicode="&#xe0;" 
d="M306 103q27 0 45.5 10t29.5 27.5t15 41t2 50.5q-26 -12 -53.5 -17.5t-51 -12t-38.5 -18.5t-15 -37q0 -20 17.5 -32t48.5 -12zM339 738l100 -148h-137l-171 148h208zM419 0l-10 56q-44 -41 -91.5 -56t-105.5 -15q-37 0 -71 9.5t-59.5 29t-41 49t-15.5 70.5q0 59 27.5 92.5
t69 50.5t90 23.5t90 12t69 15t27.5 34.5q0 14 -7.5 22.5t-18 13t-22.5 6t-20 1.5q-11 0 -23 -1.5t-22.5 -7t-18 -15.5t-9.5 -27h-200q0 42 15.5 74.5t50 55t88.5 34.5t132 12q93 0 145.5 -16.5t79 -45.5t32.5 -68.5t6 -86.5v-245q0 -23 4 -36.5t24 -30.5v-10h-215z" />
    <glyph glyph-name="aacute" unicode="&#xe1;" 
d="M306 103q27 0 45.5 10t29.5 27.5t15 41t2 50.5q-26 -12 -53.5 -17.5t-51 -12t-38.5 -18.5t-15 -37q0 -20 17.5 -32t48.5 -12zM333 738h209l-172 -148h-137zM419 0l-10 56q-44 -41 -91.5 -56t-105.5 -15q-37 0 -71 9.5t-59.5 29t-41 49t-15.5 70.5q0 59 27.5 92.5t69 50.5
t90 23.5t90 12t69 15t27.5 34.5q0 14 -7.5 22.5t-18 13t-22.5 6t-20 1.5q-11 0 -23 -1.5t-22.5 -7t-18 -15.5t-9.5 -27h-200q0 42 15.5 74.5t50 55t88.5 34.5t132 12q93 0 145.5 -16.5t79 -45.5t32.5 -68.5t6 -86.5v-245q0 -23 4 -36.5t24 -30.5v-10h-215z" />
    <glyph glyph-name="acircumflex" unicode="&#xe2;" 
d="M306 103q27 0 45.5 10t29.5 27.5t15 41t2 50.5q-26 -12 -53.5 -17.5t-51 -12t-38.5 -18.5t-15 -37q0 -20 17.5 -32t48.5 -12zM254 738h164l122 -148h-148l-56 76l-56 -76h-147zM419 0l-10 56q-44 -41 -91.5 -56t-105.5 -15q-37 0 -71 9.5t-59.5 29t-41 49t-15.5 70.5
q0 59 27.5 92.5t69 50.5t90 23.5t90 12t69 15t27.5 34.5q0 14 -7.5 22.5t-18 13t-22.5 6t-20 1.5q-11 0 -23 -1.5t-22.5 -7t-18 -15.5t-9.5 -27h-200q0 42 15.5 74.5t50 55t88.5 34.5t132 12q93 0 145.5 -16.5t79 -45.5t32.5 -68.5t6 -86.5v-245q0 -23 4 -36.5t24 -30.5v-10
h-215z" />
    <glyph glyph-name="atilde" unicode="&#xe3;" 
d="M306 103q27 0 45.5 10t29.5 27.5t15 41t2 50.5q-26 -12 -53.5 -17.5t-51 -12t-38.5 -18.5t-15 -37q0 -20 17.5 -32t48.5 -12zM532 729q-4 -27 -12.5 -51t-23.5 -42t-37 -29t-52 -11q-25 0 -49.5 7t-47.5 17q-27 12 -43 13t-25.5 -5t-14 -16.5t-8.5 -21.5h-79q3 25 12 50
t24 45t36.5 33t50.5 13q19 0 34 -3.5t29.5 -8.5t29 -11t32.5 -12q29 -9 45.5 4.5t18.5 28.5h80zM419 0l-10 56q-44 -41 -91.5 -56t-105.5 -15q-37 0 -71 9.5t-59.5 29t-41 49t-15.5 70.5q0 59 27.5 92.5t69 50.5t90 23.5t90 12t69 15t27.5 34.5q0 14 -7.5 22.5t-18 13
t-22.5 6t-20 1.5q-11 0 -23 -1.5t-22.5 -7t-18 -15.5t-9.5 -27h-200q0 42 15.5 74.5t50 55t88.5 34.5t132 12q93 0 145.5 -16.5t79 -45.5t32.5 -68.5t6 -86.5v-245q0 -23 4 -36.5t24 -30.5v-10h-215z" />
    <glyph glyph-name="adieresis" unicode="&#xe4;" 
d="M306 103q27 0 45.5 10t29.5 27.5t15 41t2 50.5q-26 -12 -53.5 -17.5t-51 -12t-38.5 -18.5t-15 -37q0 -20 17.5 -32t48.5 -12zM366 726h169v-130h-169v130zM138 596v130h169v-130h-169zM419 0l-10 56q-44 -41 -91.5 -56t-105.5 -15q-37 0 -71 9.5t-59.5 29t-41 49
t-15.5 70.5q0 59 27.5 92.5t69 50.5t90 23.5t90 12t69 15t27.5 34.5q0 14 -7.5 22.5t-18 13t-22.5 6t-20 1.5q-11 0 -23 -1.5t-22.5 -7t-18 -15.5t-9.5 -27h-200q0 42 15.5 74.5t50 55t88.5 34.5t132 12q93 0 145.5 -16.5t79 -45.5t32.5 -68.5t6 -86.5v-245q0 -23 4 -36.5
t24 -30.5v-10h-215z" />
    <glyph glyph-name="aring" unicode="&#xe5;" 
d="M334 757q-21 0 -37 -15.5t-16 -36.5t16 -36.5t37 -15.5t36.5 16t15.5 36t-15.5 36t-36.5 16zM306 103q27 0 45.5 10t29.5 27.5t15 41t2 50.5q-26 -12 -53.5 -17.5t-51 -12t-38.5 -18.5t-15 -37q0 -20 17.5 -32t48.5 -12zM334 593q-23 0 -43.5 9t-36 24t-24.5 35.5
t-9 43.5t9 43.5t24.5 35.5t36 24t43.5 9t43.5 -9t35.5 -24t24 -35.5t9 -43.5t-9 -43.5t-24 -35.5t-35.5 -24t-43.5 -9zM419 0l-10 56q-44 -41 -91.5 -56t-105.5 -15q-37 0 -71 9.5t-59.5 29t-41 49t-15.5 70.5q0 59 27.5 92.5t69 50.5t90 23.5t90 12t69 15t27.5 34.5
q0 14 -7.5 22.5t-18 13t-22.5 6t-20 1.5q-11 0 -23 -1.5t-22.5 -7t-18 -15.5t-9.5 -27h-200q0 42 15.5 74.5t50 55t88.5 34.5t132 12q93 0 145.5 -16.5t79 -45.5t32.5 -68.5t6 -86.5v-245q0 -23 4 -36.5t24 -30.5v-10h-215z" />
    <glyph glyph-name="ae" unicode="&#xe6;" horiz-adv-x="1000" 
d="M758 321q-1 37 -23.5 64t-65.5 27q-45 0 -66 -27t-25 -64h180zM314 206q-11 -2 -23 -5.5t-22 -9.5t-16.5 -15.5t-6.5 -23.5q0 -25 18 -37t40 -12q61 0 84 34t18 97q-22 -11 -45 -17t-47 -11zM335 323q13 2 26 5t23.5 8.5t17 13t6.5 18.5q0 30 -21.5 37t-56.5 7
q-9 0 -20 -1t-21.5 -6t-18.5 -15t-10 -28h-195q2 45 24 78.5t57 55.5t80 32.5t93 10.5q25 0 51.5 -2.5t52.5 -9t49.5 -17.5t43.5 -28q34 31 78.5 44t89.5 13q72 0 124.5 -27.5t86.5 -73t49.5 -104t11.5 -119.5h-377q-2 -44 20.5 -73.5t70.5 -29.5q40 0 57 12t25 32h189
q-15 -48 -40.5 -81t-61.5 -53t-81.5 -28.5t-101.5 -8.5q-63 0 -106.5 21.5t-66.5 50.5q-54 -40 -114 -56t-112 -16q-49 0 -89.5 9t-69 28.5t-44.5 50t-16 73.5q0 51 22.5 82.5t58.5 49.5t79.5 26t85.5 13z" />
    <glyph glyph-name="ccedilla" unicode="&#xe7;" 
d="M407 324q-1 33 -22 54q-20 21 -54 21q-29 0 -47 -13.5t-28 -34.5t-13 -46.5t-3 -48.5q0 -60 22.5 -95.5t68.5 -35.5q41 0 58.5 23.5t22.5 54.5h210q-6 -57 -30 -97.5t-60.5 -66.5t-83 -38.5t-97.5 -14.5l-31 -50q17 7 34 5t26 -3q16 -2 31 -9.5t25.5 -20t15 -28.5
t-0.5 -34q-6 -20 -19 -34.5t-30 -24.5t-37 -14.5t-39 -4.5q-35 0 -66.5 8t-64.5 20l21 46q21 -5 41.5 -12.5t43.5 -7.5q11 0 21 2t19 9q12 9 12.5 22.5t-9.5 24t-28.5 13.5t-44.5 -9l-25 24l48 80q-56 4 -104 23.5t-83 53.5t-55 82t-20 110q0 67 22.5 119.5t62 88.5t94.5 55
t120 19q52 0 101.5 -12t89 -37.5t65 -66.5t31.5 -99h-211z" />
    <glyph glyph-name="egrave" unicode="&#xe8;" 
d="M428 321q0 18 -7.5 34.5t-20 29t-29.5 20t-35 7.5q-47 0 -72 -24.5t-25 -66.5h189zM339 738l100 -148h-137l-171 148h208zM239 215q0 -23 8.5 -42t22.5 -32.5t32.5 -21t39.5 -7.5q25 0 46 11.5t32 34.5h199q-14 -49 -43.5 -82t-69 -53.5t-85.5 -29t-92 -8.5
q-63 0 -117.5 17.5t-94.5 52t-63 85.5t-23 117q0 64 23 116.5t62.5 89t94 56.5t117.5 20q73 0 130.5 -24t97.5 -67t60.5 -102.5t19.5 -130.5h-397z" />
    <glyph glyph-name="eacute" unicode="&#xe9;" 
d="M428 321q0 18 -7.5 34.5t-20 29t-29.5 20t-35 7.5q-47 0 -72 -24.5t-25 -66.5h189zM333 738h209l-172 -148h-137zM239 215q0 -23 8.5 -42t22.5 -32.5t32.5 -21t39.5 -7.5q25 0 46 11.5t32 34.5h199q-14 -49 -43.5 -82t-69 -53.5t-85.5 -29t-92 -8.5q-63 0 -117.5 17.5
t-94.5 52t-63 85.5t-23 117q0 64 23 116.5t62.5 89t94 56.5t117.5 20q73 0 130.5 -24t97.5 -67t60.5 -102.5t19.5 -130.5h-397z" />
    <glyph glyph-name="ecircumflex" unicode="&#xea;" 
d="M428 321q0 18 -7.5 34.5t-20 29t-29.5 20t-35 7.5q-47 0 -72 -24.5t-25 -66.5h189zM254 738h164l122 -148h-148l-56 76l-56 -76h-147zM239 215q0 -23 8.5 -42t22.5 -32.5t32.5 -21t39.5 -7.5q25 0 46 11.5t32 34.5h199q-14 -49 -43.5 -82t-69 -53.5t-85.5 -29t-92 -8.5
q-63 0 -117.5 17.5t-94.5 52t-63 85.5t-23 117q0 64 23 116.5t62.5 89t94 56.5t117.5 20q73 0 130.5 -24t97.5 -67t60.5 -102.5t19.5 -130.5h-397z" />
    <glyph glyph-name="edieresis" unicode="&#xeb;" 
d="M428 321q0 18 -7.5 34.5t-20 29t-29.5 20t-35 7.5q-47 0 -72 -24.5t-25 -66.5h189zM366 726h169v-130h-169v130zM138 596v130h169v-130h-169zM239 215q0 -23 8.5 -42t22.5 -32.5t32.5 -21t39.5 -7.5q25 0 46 11.5t32 34.5h199q-14 -49 -43.5 -82t-69 -53.5t-85.5 -29
t-92 -8.5q-63 0 -117.5 17.5t-94.5 52t-63 85.5t-23 117q0 64 23 116.5t62.5 89t94 56.5t117.5 20q73 0 130.5 -24t97.5 -67t60.5 -102.5t19.5 -130.5h-397z" />
    <glyph glyph-name="igrave" unicode="&#xec;" horiz-adv-x="333" 
d="M172 738l100 -148h-137l-171 148h208zM62 0v524h208v-524h-208z" />
    <glyph glyph-name="iacute" unicode="&#xed;" horiz-adv-x="333" 
d="M166 738h209l-172 -148h-137zM62 0v524h208v-524h-208z" />
    <glyph glyph-name="icircumflex" unicode="&#xee;" horiz-adv-x="333" 
d="M87 738h164l122 -148h-148l-56 76l-56 -76h-147zM62 0v524h208v-524h-208z" />
    <glyph glyph-name="idieresis" unicode="&#xef;" horiz-adv-x="333" 
d="M199 726h169v-130h-169v130zM-29 596v130h169v-130h-169zM62 0v524h208v-524h-208z" />
    <glyph glyph-name="eth" unicode="&#xf0;" 
d="M335 399q-27 0 -44.5 -12.5t-28 -31.5t-15 -42.5t-4.5 -45.5q0 -75 25 -108.5t65 -33.5q42 0 66 33.5t24 108.5q0 58 -23.5 96t-64.5 36zM294 560l-43 56l71 30q-13 12 -26 22t-27 19l123 52q26 -18 50 -42l68 29l48 -54l-67 -28q28 -35 53.5 -76.5t45 -89.5t30.5 -101
t11 -110q0 -72 -23 -125t-63 -88t-94.5 -52t-117.5 -17t-117.5 17t-94.5 51t-63 85t-23 118q0 63 19 113.5t52.5 86.5t78.5 55t96 19q30 0 60.5 -7.5t60.5 -24.5q-5 29 -14.5 52t-20.5 41z" />
    <glyph glyph-name="ntilde" unicode="&#xf1;" 
d="M532 729q-4 -27 -12.5 -51t-23.5 -42t-37 -29t-52 -11q-25 0 -49.5 7t-47.5 17q-27 12 -43 13t-25.5 -5t-14 -16.5t-8.5 -21.5h-79q3 25 12 50t24 45t36.5 33t50.5 13q19 0 34 -3.5t29.5 -8.5t29 -11t32.5 -12q29 -9 45.5 4.5t18.5 28.5h80zM48 524h190v-82
q35 47 76.5 72t100.5 25q104 0 153.5 -58t49.5 -167v-314h-208v277q0 19 -3 37t-11.5 31.5t-22.5 21.5t-36 8q-48 0 -64.5 -28.5t-16.5 -79.5v-267h-208v524z" />
    <glyph glyph-name="ograve" unicode="&#xf2;" 
d="M339 738l100 -148h-137l-171 148h208zM335 399q-27 0 -44.5 -12.5t-28 -31.5t-15 -42.5t-4.5 -45.5q0 -75 25 -108.5t65 -33.5q42 0 66 33.5t24 108.5q0 58 -23.5 96t-64.5 36zM35 256q0 68 21.5 121t60.5 89t94 54.5t121 18.5q69 0 124.5 -19.5t94.5 -55.5t59.5 -86
t20.5 -111q0 -72 -23 -125t-63 -88t-94.5 -52t-117.5 -17t-117.5 17t-94.5 51t-63 85t-23 118z" />
    <glyph glyph-name="oacute" unicode="&#xf3;" 
d="M333 738h209l-172 -148h-137zM335 399q-27 0 -44.5 -12.5t-28 -31.5t-15 -42.5t-4.5 -45.5q0 -75 25 -108.5t65 -33.5q42 0 66 33.5t24 108.5q0 58 -23.5 96t-64.5 36zM35 256q0 68 21.5 121t60.5 89t94 54.5t121 18.5q69 0 124.5 -19.5t94.5 -55.5t59.5 -86t20.5 -111
q0 -72 -23 -125t-63 -88t-94.5 -52t-117.5 -17t-117.5 17t-94.5 51t-63 85t-23 118z" />
    <glyph glyph-name="ocircumflex" unicode="&#xf4;" 
d="M254 738h164l122 -148h-148l-56 76l-56 -76h-147zM335 399q-27 0 -44.5 -12.5t-28 -31.5t-15 -42.5t-4.5 -45.5q0 -75 25 -108.5t65 -33.5q42 0 66 33.5t24 108.5q0 58 -23.5 96t-64.5 36zM35 256q0 68 21.5 121t60.5 89t94 54.5t121 18.5q69 0 124.5 -19.5t94.5 -55.5
t59.5 -86t20.5 -111q0 -72 -23 -125t-63 -88t-94.5 -52t-117.5 -17t-117.5 17t-94.5 51t-63 85t-23 118z" />
    <glyph glyph-name="otilde" unicode="&#xf5;" 
d="M532 729q-4 -27 -12.5 -51t-23.5 -42t-37 -29t-52 -11q-25 0 -49.5 7t-47.5 17q-27 12 -43 13t-25.5 -5t-14 -16.5t-8.5 -21.5h-79q3 25 12 50t24 45t36.5 33t50.5 13q19 0 34 -3.5t29.5 -8.5t29 -11t32.5 -12q29 -9 45.5 4.5t18.5 28.5h80zM335 399q-27 0 -44.5 -12.5
t-28 -31.5t-15 -42.5t-4.5 -45.5q0 -75 25 -108.5t65 -33.5q42 0 66 33.5t24 108.5q0 58 -23.5 96t-64.5 36zM35 256q0 68 21.5 121t60.5 89t94 54.5t121 18.5q69 0 124.5 -19.5t94.5 -55.5t59.5 -86t20.5 -111q0 -72 -23 -125t-63 -88t-94.5 -52t-117.5 -17t-117.5 17
t-94.5 51t-63 85t-23 118z" />
    <glyph glyph-name="odieresis" unicode="&#xf6;" 
d="M138 596v130h169v-130h-169zM366 726h169v-130h-169v130zM335 399q-27 0 -44.5 -12.5t-28 -31.5t-15 -42.5t-4.5 -45.5q0 -75 25 -108.5t65 -33.5q42 0 66 33.5t24 108.5q0 58 -23.5 96t-64.5 36zM35 256q0 68 21.5 121t60.5 89t94 54.5t121 18.5q69 0 124.5 -19.5
t94.5 -55.5t59.5 -86t20.5 -111q0 -72 -23 -125t-63 -88t-94.5 -52t-117.5 -17t-117.5 17t-94.5 51t-63 85t-23 118z" />
    <glyph glyph-name="divide" unicode="&#xf7;" horiz-adv-x="660" 
d="M272 7v116h116v-116h-116zM272 389v116h116v-116h-116zM78 198v116h504v-116h-504z" />
    <glyph glyph-name="oslash" unicode="&#xf8;" 
d="M293 137q19 -12 40 -12q44 0 67 35.5t23 106.5q0 16 -3 31.5t-7 29.5zM379 385q-10 8 -22 11t-24 3q-26 0 -43.5 -12.5t-28 -32t-14.5 -43t-4 -44.5q0 -19 2.5 -39.5t8.5 -40.5zM516 490q16 -10 36.5 -28t37.5 -45t29 -64t12 -86q0 -72 -23 -125t-63.5 -88t-94.5 -52
t-117 -17q-33 0 -64 4.5t-60 15.5l-49 -77l-51 28l47 74q-56 31 -88.5 87.5t-32.5 138.5q0 68 21.5 121t60.5 89t94 54.5t121 18.5q40 0 72.5 -6.5t57.5 -15.5l41 64l50 -33z" />
    <glyph glyph-name="ugrave" unicode="&#xf9;" 
d="M339 738l100 -148h-137l-171 148h208zM618 0h-193v77q-20 -27 -39.5 -45t-42 -28.5t-49 -14.5t-58.5 -4q-86 0 -137 53.5t-51 166.5v319h208v-283q0 -54 18.5 -74.5t56.5 -20.5q45 0 62 32.5t17 93.5v252h208v-524z" />
    <glyph glyph-name="uacute" unicode="&#xfa;" 
d="M333 738h209l-172 -148h-137zM618 0h-193v77q-20 -27 -39.5 -45t-42 -28.5t-49 -14.5t-58.5 -4q-86 0 -137 53.5t-51 166.5v319h208v-283q0 -54 18.5 -74.5t56.5 -20.5q45 0 62 32.5t17 93.5v252h208v-524z" />
    <glyph glyph-name="ucircumflex" unicode="&#xfb;" 
d="M254 738h164l122 -148h-148l-56 76l-56 -76h-147zM618 0h-193v77q-20 -27 -39.5 -45t-42 -28.5t-49 -14.5t-58.5 -4q-86 0 -137 53.5t-51 166.5v319h208v-283q0 -54 18.5 -74.5t56.5 -20.5q45 0 62 32.5t17 93.5v252h208v-524z" />
    <glyph glyph-name="udieresis" unicode="&#xfc;" 
d="M366 726h169v-130h-169v130zM138 596v130h169v-130h-169zM618 0h-193v77q-20 -27 -39.5 -45t-42 -28.5t-49 -14.5t-58.5 -4q-86 0 -137 53.5t-51 166.5v319h208v-283q0 -54 18.5 -74.5t56.5 -20.5q45 0 62 32.5t17 93.5v252h208v-524z" />
    <glyph glyph-name="yacute" unicode="&#xfd;" horiz-adv-x="611" 
d="M305 738h209l-172 -148h-137zM307 201l91 323h200l-168 -489q-21 -61 -38.5 -102t-44 -65.5t-68.5 -35t-111 -10.5q-29 0 -54.5 2t-37.5 2v145q11 0 21.5 -0.5t21.5 -0.5q49 0 62 16.5t-3 60.5l-172 477h209z" />
    <glyph glyph-name="thorn" unicode="&#xfe;" 
d="M333 144q42 0 66 32.5t24 86.5q0 63 -24.5 92.5t-66.5 29.5q-38 0 -61 -32.5t-23 -85.5q0 -55 22 -89t63 -34zM231 739v-293h2q11 24 29.5 41.5t41 29t46.5 17t47 5.5q59 0 103 -22.5t73 -60t43.5 -87t14.5 -103.5q0 -77 -22 -130.5t-57 -87t-78.5 -48.5t-87.5 -15
q-43 0 -75.5 17t-58.5 50v-230h-208v917h187z" />
    <glyph glyph-name="ydieresis" unicode="&#xff;" horiz-adv-x="611" 
d="M338 726h169v-130h-169v130zM110 596v130h169v-130h-169zM307 201l91 323h200l-168 -489q-21 -61 -38.5 -102t-44 -65.5t-68.5 -35t-111 -10.5q-29 0 -54.5 2t-37.5 2v145q11 0 21.5 -0.5t21.5 -0.5q49 0 62 16.5t-3 60.5l-172 477h209z" />
    <glyph glyph-name="dotlessi" unicode="&#x131;" horiz-adv-x="333" 
d="M62 0v524h208v-524h-208z" />
    <glyph glyph-name="Lslash" unicode="&#x141;" 
d="M76 0v315l-96 -50v135l96 50v270h236v-200l96 50v-135l-96 -50v-217h315v-168h-551z" />
    <glyph glyph-name="lslash" unicode="&#x142;" horiz-adv-x="333" 
d="M270 0h-208v290l-63 -60v130l63 60v300h208v-220l63 60v-130l-63 -60v-370z" />
    <glyph glyph-name="OE" unicode="&#x152;" horiz-adv-x="1000" 
d="M349 563q-42 0 -66 -23t-37 -57t-16.5 -72.5t-3.5 -69.5q0 -85 29 -134.5t90 -49.5q43 0 67.5 22t37 55t15.5 71.5t3 70.5q0 37 -5.5 71t-19.5 60t-37 41t-57 15zM487 64q-32 -43 -81 -63t-101 -20q-69 0 -124 24t-94 72t-60 120.5t-21 170.5q0 94 25 164t67 116
t96.5 68.5t113.5 22.5q52 0 101.5 -19.5t78.5 -65.5v66h480v-168h-292v-103h241v-168h-242v-113h306v-168h-494v64z" />
    <glyph glyph-name="oe" unicode="&#x153;" horiz-adv-x="1000" 
d="M791 321q-1 41 -28.5 66t-74.5 25q-53 0 -79 -25t-28 -66h210zM332 399q-29 0 -46.5 -13.5t-27 -34.5t-12.5 -46t-3 -48q0 -24 2.5 -48t12 -42.5t27.5 -30t48 -11.5q29 0 45.5 13t25 33t11 44t2.5 46q0 31 -4 56.5t-14 43.5t-26 28t-41 10zM581 215q0 -44 22.5 -73.5
t70.5 -29.5q32 0 55 11.5t27 32.5h189q-12 -48 -39.5 -80.5t-64.5 -52.5q-36 -20 -77.5 -29t-82.5 -9q-59 0 -102 21.5t-80 50.5q-25 -30 -72.5 -51t-116.5 -21q-66 0 -117 19.5t-86 55.5t-53.5 86t-18.5 111q0 73 22.5 126.5t60.5 88t88 51t105 16.5q52 0 102 -15t88 -42
q48 31 95 44t92 13q72 0 124.5 -27.5t86.5 -73t49.5 -104t11.5 -119.5h-379z" />
    <glyph glyph-name="Scaron" unicode="&#x160;" horiz-adv-x="722" 
d="M568 934l-122 -148h-164l-121 148h147l56 -75l56 75h148zM445 511q-3 19 -12 30.5t-22 18.5q-25 13 -61 13q-39 0 -57 -10.5t-18 -30.5t18 -33t47 -23t66 -18.5t76 -19.5t76 -26.5t66 -40t47 -59t18 -83.5q0 -63 -25 -109.5t-69.5 -77t-106.5 -46t-136 -15.5
q-71 0 -129 19.5t-99.5 52.5t-65 76.5t-25.5 92.5h226q7 -38 39 -57q14 -9 32 -13.5t35 -4.5q45 0 71.5 13.5t26.5 39.5q0 27 -30.5 41.5t-76.5 26l-100 25t-100 38.5t-76.5 67t-30.5 111q0 57 23.5 100.5t65 72t98.5 43t125 14.5q75 0 130 -18t92.5 -49t58.5 -72.5
t27 -88.5h-224z" />
    <glyph glyph-name="scaron" unicode="&#x161;" horiz-adv-x="611" 
d="M512 738l-122 -148h-164l-121 148h147l56 -75l56 75h148zM231 163q0 -31 22 -48q21 -16 51 -16q24 0 45 9.5t21 37.5q0 21 -24 31.5t-59.5 18t-77 16t-77 26t-59.5 47.5t-24 81q0 50 23.5 83.5t59.5 53.5t80 28t85 8q43 0 87 -6t81 -24t62 -50.5t30 -84.5h-189
q-3 24 -20 38q-16 13 -42 13q-27 0 -43 -8.5t-16 -28.5q0 -18 24.5 -28t61.5 -18t79.5 -18t79.5 -28t61.5 -48.5t24.5 -79.5q0 -82 -69 -132.5t-213 -50.5q-45 0 -90 8t-82 28t-62 54.5t-29 87.5h198z" />
    <glyph glyph-name="Ydieresis" unicode="&#x178;" horiz-adv-x="778" 
d="M422 922h169v-130h-169v130zM194 792v130h169v-130h-169zM507 0h-236v262l-268 458h264l124 -244l124 244h260l-268 -454v-266z" />
    <glyph glyph-name="Zcaron" unicode="&#x17d;" horiz-adv-x="722" 
d="M568 934l-122 -148h-164l-121 148h147l56 -75l56 75h148zM36 0v171l345 381h-331v168h621v-167l-350 -385h364v-168h-649z" />
    <glyph glyph-name="zcaron" unicode="&#x17e;" horiz-adv-x="556" 
d="M485 738l-122 -148h-164l-121 148h147l56 -75l56 75h148zM26 0v139l237 233h-216v152h472v-145l-229 -227h240v-152h-504z" />
    <glyph glyph-name="florin" unicode="&#x192;" 
d="M601 603q-14 4 -28.5 7t-28.5 3q-32 0 -44 -10.5t-17 -41.5l-18 -95h110v-116h-129l-44 -254q-5 -32 -12.5 -64t-16.5 -64q-9 -31 -26 -56t-41 -46l-17.5 -14t-15 -10.5t-16.5 -8t-21 -7.5q-5 -2 -14.5 -3.5t-20 -3t-20 -2.5t-14.5 -1q-30 0 -60 6.5t-59 12.5l22 127
q11 -6 22.5 -8t23.5 -5q37 -2 57 21t26 58l55 322h-107v116h126q7 41 15 82.5t24 78t43 65.5t72 45q20 7 39.5 8.5t40.5 1.5q29 0 57.5 -5.5t57.5 -11.5z" />
    <glyph glyph-name="circumflex" unicode="&#x2c6;" horiz-adv-x="333" 
d="M87 738h164l122 -148h-148l-56 76l-56 -76h-147z" />
    <glyph glyph-name="caron" unicode="&#x2c7;" horiz-adv-x="333" 
d="M373 738l-122 -148h-164l-121 148h147l56 -75l56 75h148z" />
    <glyph glyph-name="breve" unicode="&#x2d8;" horiz-adv-x="333" 
d="M67 743q3 -21 13.5 -33.5t25.5 -18.5t33 -8t35 -2q47 0 70.5 15t28.5 47h78q-2 -39 -17 -67.5t-40 -47.5t-57.5 -28.5t-68.5 -9.5q-79 0 -126.5 35t-53.5 118h79z" />
    <glyph glyph-name="dotaccent" unicode="&#x2d9;" horiz-adv-x="333" 
d="M82 596v130h169v-130h-169z" />
    <glyph glyph-name="ring" unicode="&#x2da;" horiz-adv-x="333" 
d="M167 757q-21 0 -37 -15.5t-16 -36.5t16 -36.5t37 -15.5t36.5 16t15.5 36t-15.5 36t-36.5 16zM167 593q-23 0 -43.5 9t-36 24t-24.5 35.5t-9 43.5t9 43.5t24.5 35.5t36 24t43.5 9t43.5 -9t35.5 -24t24 -35.5t9 -43.5t-9 -43.5t-24 -35.5t-35.5 -24t-43.5 -9z" />
    <glyph glyph-name="ogonek" unicode="&#x2db;" horiz-adv-x="333" 
d="M239 0v-2q-18 -8 -37 -25t-19 -40q0 -19 14 -34t33 -15q14 0 24.5 3.5t23.5 8.5v-86q-44 -15 -89 -15q-23 0 -44 6t-37 18t-25.5 30.5t-9.5 44.5q0 18 8 33.5t20 28.5t26.5 24t28.5 20h83z" />
    <glyph glyph-name="tilde" unicode="&#x2dc;" horiz-adv-x="333" 
d="M365 729q-4 -27 -12.5 -51t-23.5 -42t-37 -29t-52 -11q-25 0 -49.5 7t-47.5 17q-27 12 -43 13t-25.5 -5t-14 -16.5t-8.5 -21.5h-79q3 25 12 50t24 45t36.5 33t50.5 13q19 0 34 -3.5t29.5 -8.5t29 -11t32.5 -12q29 -9 45.5 4.5t18.5 28.5h80z" />
    <glyph glyph-name="hungarumlaut" unicode="&#x2dd;" horiz-adv-x="333" 
d="M418 738h209l-172 -148h-137zM166 738h209l-172 -148h-137z" />
    <glyph glyph-name="endash" unicode="&#x2013;" horiz-adv-x="500" 
d="M0 187v138h500v-138h-500z" />
    <glyph glyph-name="emdash" unicode="&#x2014;" horiz-adv-x="1000" 
d="M0 187v138h1000v-138h-1000z" />
    <glyph glyph-name="quoteleft" unicode="&#x2018;" horiz-adv-x="278" 
d="M236 658q-41 -6 -61 -30q-19 -23 -19 -67h80v-183h-183v158q-2 46 13 84t40.5 64.5t59.5 41t70 13.5v-81z" />
    <glyph glyph-name="quoteright" unicode="&#x2019;" horiz-adv-x="278" 
d="M42 440q43 7 61 31q19 25 19 66h-80v183h183v-158q2 -46 -12.5 -83.5t-40 -64t-59.5 -41t-71 -14.5v81z" />
    <glyph glyph-name="quotesinglbase" unicode="&#x201a;" horiz-adv-x="278" 
d="M42 -97q43 7 61 31q19 25 19 66h-80v183h183v-158q2 -46 -12.5 -84t-40 -64.5t-59.5 -41t-71 -13.5v81z" />
    <glyph glyph-name="quotedblleft" unicode="&#x201c;" horiz-adv-x="500" 
d="M224 658q-41 -6 -61 -30q-19 -23 -19 -67h80v-183h-183v158q-2 46 13 84t40.5 64.5t59.5 41t70 13.5v-81zM471 658q-41 -6 -61 -30q-19 -23 -19 -67h80v-183h-183v158q-2 46 13 84t40.5 64.5t59.5 41t70 13.5v-81z" />
    <glyph glyph-name="quotedblright" unicode="&#x201d;" horiz-adv-x="500" 
d="M29 440q43 7 61 31q19 25 19 66h-80v183h183v-158q2 -46 -12.5 -83.5t-40 -64t-59.5 -41t-71 -14.5v81zM276 440q43 7 61 31q19 25 19 66h-80v183h183v-158q2 -46 -12.5 -83.5t-40 -64t-59.5 -41t-71 -14.5v81z" />
    <glyph glyph-name="quotedblbase" unicode="&#x201e;" horiz-adv-x="500" 
d="M29 -97q43 7 61 31q19 25 19 66h-80v183h183v-158q2 -46 -12.5 -84t-40 -64.5t-59.5 -41t-71 -13.5v81zM276 -97q43 7 61 31q19 25 19 66h-80v183h183v-158q2 -46 -12.5 -84t-40 -64.5t-59.5 -41t-71 -13.5v81z" />
    <glyph glyph-name="dagger" unicode="&#x2020;" 
d="M232 720h202v-206h150v-158h-150v-534h-202v534h-150v158h150v206z" />
    <glyph glyph-name="daggerdbl" unicode="&#x2021;" 
d="M232 540v180h192v-180h160v-158h-160v-218h160v-158h-160v-184h-192v184h-150v158h150v218h-150v158h150z" />
    <glyph glyph-name="bullet" unicode="&#x2022;" horiz-adv-x="500" 
d="M418 361q0 -35 -13.5 -65.5t-36.5 -53.5t-53.5 -36.5t-65.5 -13.5t-65.5 13.5t-53.5 36.5t-36 53.5t-13 65.5t13 65.5t36 53.5t53.5 36t65.5 13t65.5 -13t53.5 -36t36.5 -53.5t13.5 -65.5z" />
    <glyph glyph-name="ellipsis" unicode="&#x2026;" horiz-adv-x="1000" 
d="M727 0v206h212v-206h-212zM394 0v206h212v-206h-212zM61 0v206h212v-206h-212z" />
    <glyph glyph-name="perthousand" unicode="&#x2030;" horiz-adv-x="1000" 
d="M469 182q-18 0 -33 -14t-15 -33t15 -33t33 -14q19 0 33 14.5t14 32.5t-14 32.5t-33 14.5zM161 631q-18 0 -33 -14t-15 -33t15 -33t33 -14q19 0 33 14.5t14 32.5t-14 32.5t-33 14.5zM840 182q-18 0 -33 -14t-15 -33t15 -33t33 -14q19 0 33 14.5t14 32.5t-14 32.5t-33 14.5
zM566 738l-420 -758h-85l420 758h85zM840 302q34 0 64.5 -13.5t53 -36t36 -53t13.5 -64.5q0 -35 -13.5 -65.5t-36.5 -53t-54 -35.5t-66 -13q-34 0 -64 13.5t-52.5 36.5t-35.5 53.5t-13 63.5q0 34 13.5 64.5t37 53t54 36t63.5 13.5zM161 751q34 0 64.5 -13.5t53 -36t36 -53
t13.5 -64.5q0 -35 -13.5 -65.5t-36.5 -53t-54 -35.5t-66 -13q-34 0 -64 13.5t-52.5 36.5t-35.5 53.5t-13 63.5q0 34 13.5 64.5t37 53t54 36t63.5 13.5zM469 302q34 0 64.5 -13.5t53 -36t36 -53t13.5 -64.5q0 -35 -13.5 -65.5t-36.5 -53t-54 -35.5t-66 -13q-34 0 -64 13.5
t-52.5 36.5t-35.5 53.5t-13 63.5q0 34 13.5 64.5t37 53t54 36t63.5 13.5z" />
    <glyph glyph-name="guilsinglleft" unicode="&#x2039;" horiz-adv-x="333" 
d="M75 182v146l183 120v-131l-101 -65l101 -59v-129z" />
    <glyph glyph-name="guilsinglright" unicode="&#x203a;" horiz-adv-x="333" 
d="M258 330v-146l-183 -120v131l101 65l-101 59v129z" />
    <glyph glyph-name="fraction" unicode="&#x2044;" horiz-adv-x="167" 
d="M-167 -15l403 730h98l-403 -730h-98z" />
    <glyph glyph-name="fraction" unicode="&#x2215;" horiz-adv-x="167" 
d="M-167 -15l403 730h98l-403 -730h-98z" />
    <glyph glyph-name="trademark" unicode="&#x2122;" horiz-adv-x="950" 
d="M371 642h-123v-326h-97v326h-123v78h343v-78zM886 316h-88v326h-2l-117 -326h-52l-117 326h-2v-326h-88v404h142l91 -239l91 239h142v-404z" />
    <glyph glyph-name="minus" unicode="&#x2212;" horiz-adv-x="660" 
d="M78 314h504v-116h-504v116z" />
    <glyph glyph-name="fi" unicode="&#xfb01;" 
d="M622 591h-208v148h208v-148zM622 524v-524h-208v524h208zM9 404v120h70q0 69 13.5 111.5t39.5 65.5t64 30.5t88 7.5h89v-131q-26 0 -43 -1.5t-27.5 -9t-14.5 -25t-2 -48.5h87v-120h-87v-404h-208v404h-69z" />
    <glyph glyph-name="fl" unicode="&#xfb02;" 
d="M622 720v-720h-208v720h208zM373 524v-120h-87v-404h-208v404h-69v120h70q0 69 13.5 111.5t39.5 65.5t64 30.5t88 7.5h89v-131q-26 0 -43 -1.5t-27.5 -9t-14.5 -25t-2 -48.5h87z" />
    <glyph glyph-name="nonbreakingspace" horiz-adv-x="333" 
 />
    </font>
</defs>
</svg>
